<?xml version="1.0" encoding="iso-8859-1"?>
<!-- Generator: Adobe Illustrator 19.0.0, SVG Export Plug-In . SVG Version: 6.00 Build 0)  -->
<svg version="1.1" id="Layer_1" xmlns="http://www.w3.org/2000/svg" xmlns:xlink="http://www.w3.org/1999/xlink" x="0px" y="0px"
	 viewBox="0 0 511.997 511.997" style="enable-background:new 0 0 511.997 511.997;" xml:space="preserve">
<polygon style="fill:#656D78;" points="495.591,371.182 457.341,336.651 50.672,326.651 10.345,387.322 10.345,420.993 
	66.344,401.994 134,418.321 196.64,401.994 259.999,418.321 312.999,401.994 389.326,418.321 436.013,401.994 499.497,418.321 "/>
<polygon style="fill:#ED5564;" points="427.497,89.825 86,89.825 12.501,384.322 69.5,366.322 133.5,387.322 190.499,368.322 
	255.999,387.322 317.999,368.322 377.998,384.822 429.497,371.322 499.497,387.322 "/>
<path style="fill:#080808;" d="M511.997,389.103c-0.016-0.109-0.016-0.219-0.031-0.312c0-0.125,0-0.266-0.016-0.406
	c-0.016-0.094-0.016-0.188-0.031-0.281c-0.016-0.156-0.047-0.297-0.062-0.438c-0.016-0.094-0.016-0.156-0.047-0.25
	c-0.031-0.219-0.078-0.438-0.125-0.672L436.997,88.075c-1.172-4.75-5.438-8.078-10.344-8.078H85.329
	c-4.891,0-9.156,3.328-10.344,8.078L0.313,386.744c-0.062,0.234-0.094,0.453-0.141,0.672c-0.016,0.094-0.016,0.156-0.047,0.25
	c-0.016,0.156-0.031,0.281-0.062,0.438c0,0.094-0.016,0.188-0.031,0.281c0,0.141-0.016,0.281-0.016,0.406
	C0,388.885,0,388.994,0,389.103c0,0.062,0,0.156,0,0.219v31.999c0,3.469,1.672,6.703,4.484,8.703c2.828,2,6.438,2.516,9.703,1.375
	l57.562-20.108l58.093,20.124c2.25,0.781,4.719,0.781,7,0l57.812-20.124l57.843,20.124c2.25,0.781,4.734,0.781,7,0l57.828-20.124
	l57.827,20.124c2.281,0.781,4.75,0.781,7,0l57.843-20.124l57.828,20.124c1.141,0.375,2.328,0.578,3.5,0.578
	c2.188,0,4.359-0.672,6.172-1.969c2.828-2,4.5-5.234,4.5-8.703v-31.999C511.997,389.26,511.997,389.166,511.997,389.103z
	 M198.156,357.916c-2.25-0.781-4.719-0.781-7,0l-45.109,15.688l10.391-83.062l44.687-15.656l44.203,15.359v84.077L198.156,357.916z
	 M75.235,357.916c-1.141-0.391-2.312-0.594-3.484-0.594c-1.188,0-2.391,0.219-3.531,0.594l-42.406,14.828l20.468-81.921
	l45.125-15.938L135,289.916l-10.625,85.03L75.235,357.916z M70.282,194.871l40.187-13.797L147,193.886l-9.281,74.405l-42.875-14.797
	c-2.281-0.797-4.75-0.781-7.031,0.016l-35.312,12.484L70.282,194.871z M245.327,101.324v70.344l-34.328-11.938
	c-2.25-0.797-4.719-0.797-6.984-0.016l-32.641,11.266l8.703-69.656C180.077,101.324,245.327,101.324,245.327,101.324z
	 M331.905,101.324l8.719,69.656l-32.656-11.266c-2.25-0.781-4.719-0.781-6.969,0.016l-34.344,11.938v-70.344
	C266.655,101.324,331.905,101.324,331.905,101.324z M459.497,265.995l-35.328-12.484c-2.266-0.797-4.766-0.812-7.047-0.016
	l-42.843,14.828l-9.297-74.437l36.547-12.812l40.187,13.797L459.497,265.995z M168.421,194.574l39.062-13.5l37.843,13.172v73.421
	l-40.703-14.156c-2.281-0.797-4.75-0.797-7.031,0l-38.218,13.391L168.421,194.574z M266.655,194.246l37.844-13.172l39.062,13.5
	l9.046,72.312l-38.218-13.375c-2.266-0.797-4.75-0.797-7.016,0l-40.719,14.156L266.655,194.246L266.655,194.246z M266.655,290.245
	l44.203-15.359l44.702,15.625l10.375,83.093l-45.093-15.688c-2.281-0.781-4.75-0.781-7.016,0l-47.172,16.406L266.655,290.245
	L266.655,290.245z M387.607,374.916l-10.609-84.968l43.593-15.062l45.109,15.938l20.484,81.952l-42.688-14.859
	c-2.266-0.781-4.734-0.781-7,0L387.607,374.916z M435.56,170.199l-30.593-10.5c-2.281-0.781-4.734-0.766-7,0.031l-35.688,12.5
	l-8.875-70.906h64.937L435.56,170.199z M93.657,101.324h64.921l-8.859,70.906l-35.688-12.5c-2.266-0.797-4.734-0.812-7-0.031
	l-30.593,10.5L93.657,101.324z M443.497,389.916c-2.266-0.781-4.734-0.781-7,0l-57.843,20.125l-57.812-20.125
	c-2.281-0.781-4.75-0.781-7.016,0l-57.827,20.125l-57.843-20.125c-2.25-0.781-4.719-0.781-7,0l-57.843,20.125l-58.078-20.125
	c-1.141-0.391-2.312-0.594-3.484-0.594c-1.188,0-2.391,0.219-3.531,0.594l-46.89,16.391v-9.406l50.421-17.609l58.093,20.125l0,0
	c0.125,0.031,0.219,0.062,0.328,0.094c0.203,0.062,0.422,0.125,0.641,0.188c0.125,0.031,0.25,0.047,0.375,0.062
	c0.203,0.062,0.422,0.094,0.625,0.125c0.062,0,0.125,0.031,0.188,0.031c0.109,0.016,0.219,0.016,0.312,0.031
	c0.078,0,0.141,0,0.219,0.016c0.266,0.016,0.531,0.047,0.812,0.047c0.172,0,0.344-0.031,0.531-0.031c0.125,0,0.25,0,0.375-0.031
	c0.188,0,0.375-0.031,0.578-0.062c0.109-0.016,0.219-0.031,0.328-0.047c0.188-0.031,0.375-0.078,0.562-0.109
	c0.125-0.031,0.234-0.062,0.344-0.094c0.188-0.047,0.344-0.094,0.531-0.156c0.078-0.031,0.156-0.047,0.25-0.062l57.812-20.125
	l57.843,20.125c0.031,0,0.094,0.016,0.141,0.031c0.141,0.062,0.297,0.094,0.453,0.141c0.172,0.047,0.344,0.078,0.5,0.125
	s0.297,0.078,0.438,0.094c0.203,0.047,0.406,0.078,0.594,0.094c0.125,0.016,0.25,0.031,0.375,0.047c0.344,0.031,0.656,0.047,1,0.047
	l0,0l0,0c0.328,0,0.656-0.016,0.984-0.047c0.141-0.016,0.25-0.031,0.375-0.047c0.203-0.016,0.391-0.047,0.594-0.094
	c0.141-0.016,0.297-0.047,0.453-0.094s0.312-0.078,0.484-0.125c0.156-0.047,0.312-0.078,0.469-0.141
	c0.047-0.016,0.094-0.031,0.141-0.031l57.828-20.125l57.827,20.125c0.094,0.016,0.156,0.031,0.25,0.062
	c0.172,0.062,0.344,0.109,0.531,0.156c0.109,0.031,0.219,0.062,0.344,0.094c0.188,0.031,0.375,0.078,0.562,0.109
	c0.109,0.016,0.219,0.031,0.344,0.047c0.188,0.031,0.375,0.062,0.562,0.062c0.156,0.031,0.344,0.031,0.5,0.031
	c0.125,0,0.266,0.031,0.406,0.031c0.266,0,0.531-0.031,0.812-0.047c0.062-0.016,0.156-0.016,0.234-0.016
	c0.094-0.016,0.188-0.031,0.281-0.031c0.062,0,0.109-0.031,0.172-0.031c0.219-0.031,0.453-0.062,0.672-0.125
	c0.109-0.016,0.234-0.031,0.359-0.062c0.203-0.062,0.422-0.125,0.625-0.188c0.125-0.031,0.219-0.062,0.344-0.094l0,0l57.843-20.125
	l50.656,17.625v9.406L443.497,389.916z"/>
<g>
</g>
<g>
</g>
<g>
</g>
<g>
</g>
<g>
</g>
<g>
</g>
<g>
</g>
<g>
</g>
<g>
</g>
<g>
</g>
<g>
</g>
<g>
</g>
<g>
</g>
<g>
</g>
<g>
</g>
</svg>
