<svg height="20" viewBox="0 0 512 512" width="20" xmlns="http://www.w3.org/2000/svg"><g id="Soil_Analysis" data-name="Soil Analysis"><g id="Filled"><path d="m0 440h512v72h-512z" fill="#4dd0e1"/><path d="m0 168h512v96h-512z" fill="#f7e0ba"/><path d="m512 264v184h-8c-31 0-31 16-62 16s-31.01-16-62.01-16-31 16-62 16-31-16-62-16-31 16-61.99 16-31-16-62-16-31 16-62 16-31-16-62-16h-8v-184z" fill="#cfd8dc"/><path d="m128.765 112.736s19.08 13.953 39.164 3.183 33.571-42.183 33.571-42.183-33.626-6.153-53.71 4.616-19.025 34.384-19.025 34.384z" fill="#9ccc65"/><path d="m328 40h176v240h-176z" fill="#b2ebf2"/><path d="m472 184a56 56 0 0 1 -112 0c0-30.928 56-104 56-104s56 73.072 56 104z" fill="#80deea"/><ellipse cx="48" cy="320" fill="#90a4ae" rx="40" ry="24"/><ellipse cx="152" cy="324" fill="#90a4ae" rx="32" ry="20"/><ellipse cx="88" cy="392" fill="#90a4ae" rx="40" ry="24"/><ellipse cx="256" cy="320" fill="#90a4ae" rx="40" ry="24"/><ellipse cx="200" cy="396" fill="#90a4ae" rx="32" ry="20"/><ellipse cx="312" cy="392" fill="#90a4ae" rx="40" ry="24"/><ellipse cx="424" cy="396" fill="#90a4ae" rx="32" ry="20"/><path d="m328 328a16 16 0 0 0 16 16h144a16 16 0 0 0 16-16v-48h-176z" fill="#ededed"/><path d="m504 24a16 16 0 0 0 -16-16h-144a16 16 0 0 0 -16 16v16h176z" fill="#ededed"/><path d="m128.731 112.736s-19.081 13.953-39.165 3.183-33.566-42.183-33.566-42.183 33.627-6.153 53.711 4.616 19.02 34.384 19.02 34.384z" fill="#9ccc65"/><path d="m328 106.93a235.077 235.077 0 0 1 156-58.93c6.739 0 13.406.3 20 .863v-8.863h-176z" fill="#80deea"/><path d="m464.06 156.458a107.911 107.911 0 0 1 -92.06 51.542c-2.253 0-4.486-.085-6.7-.223a56 56 0 0 0 106.7-23.777c0-7.326-3.145-17.018-7.94-27.542z" fill="#4dd0e1"/><path d="m75.094 302.348a75.924 75.924 0 0 1 -57.232 33.423c7.338 5.04 18.111 8.229 30.138 8.229 22.091 0 40-10.745 40-24 0-6.982-4.974-13.266-12.906-17.652z" fill="#7e97a3"/><path d="m152 344c17.673 0 32-8.954 32-20 0-4.422-2.3-8.507-6.189-11.819a76.07 76.07 0 0 1 -41.811 29.138 47.329 47.329 0 0 0 16 2.681z" fill="#7e97a3"/><path d="m283.094 302.348a75.924 75.924 0 0 1 -57.232 33.423c7.338 5.04 18.111 8.229 30.138 8.229 22.091 0 40-10.745 40-24 0-6.982-4.974-13.266-12.906-17.652z" fill="#7e97a3"/><path d="m115.094 374.348a75.926 75.926 0 0 1 -57.232 33.423c7.333 5.04 18.111 8.229 30.138 8.229 22.091 0 40-10.745 40-24 0-6.982-4.974-13.266-12.906-17.652z" fill="#7e97a3"/><path d="m174.126 407.763c5.819 4.991 15.238 8.237 25.874 8.237 17.673 0 32-8.954 32-20a13.5 13.5 0 0 0 -1.928-6.852 75.673 75.673 0 0 1 -50.072 18.852c-1.978 0-3.935-.085-5.874-.237z" fill="#7e97a3"/><path d="m344.487 378.007a75.873 75.873 0 0 1 -60.487 29.993c-.629 0-1.249-.031-1.874-.047 7.326 4.936 17.992 8.047 29.874 8.047 22.091 0 40-10.745 40-24 0-5.224-2.79-10.053-7.513-13.993z" fill="#7e97a3"/><path d="m424 416c17.673 0 32-8.954 32-20 0-4.126-2-7.959-5.426-11.144a75.727 75.727 0 0 1 -52.22 23.107c5.835 4.879 15.146 8.037 25.646 8.037z" fill="#7e97a3"/><g fill="#cfd8dc"><circle cx="24" cy="312" r="8"/><circle cx="136" cy="320" r="8"/><circle cx="232" cy="312" r="8"/><circle cx="72" cy="384" r="8"/><circle cx="192" cy="392" r="8"/><circle cx="296" cy="384" r="8"/><circle cx="408" cy="392" r="8"/></g><path d="m201.5 73.736s-17.849-3.26-35.306-.868a79.927 79.927 0 0 1 -27.346 44.861c7.427 2.573 18.1 4.08 29.086-1.81 20.079-10.769 33.566-42.183 33.566-42.183z" fill="#83bd46"/><circle cx="84" cy="84" fill="#c6ed93" r="12"/><circle cx="104" cy="104" fill="#c6ed93" r="8"/></g><g id="Outline"><path d="m488 0h-64a8 8 0 0 0 0 16h64a8.009 8.009 0 0 1 8 8v8h-160v-8a8.009 8.009 0 0 1 8-8h16a8 8 0 0 0 0-16h-16a24.028 24.028 0 0 0 -24 24v304a24.028 24.028 0 0 0 24 24h144a24.028 24.028 0 0 0 24-24v-304a24.028 24.028 0 0 0 -24-24zm8 328a8.009 8.009 0 0 1 -8 8h-144a8.009 8.009 0 0 1 -8-8v-40h160zm0-56h-160v-224h160z"/><path d="m416 248a64.072 64.072 0 0 0 64-64c0-32.7-51.75-101.167-57.65-108.866a8 8 0 0 0 -12.7 0c-5.9 7.699-57.65 76.166-57.65 108.866a64.072 64.072 0 0 0 64 64zm0-154.607c17.59 24.184 48 70.23 48 90.607a48 48 0 0 1 -96 0c0-20.362 30.411-66.418 48-90.607z"/><path d="m393.343 206.657a8 8 0 0 0 11.314 0l34-34a8 8 0 0 0 -11.314-11.314l-34 34a8 8 0 0 0 0 11.314z"/><circle cx="440" cy="200" r="8"/><circle cx="392" cy="168" r="8"/><path d="m400 320h32a8 8 0 0 0 0-16h-32a8 8 0 0 0 0 16z"/><path d="m504 480c-32.746 0-34.231 16-62 16-28.078 0-28.94-16-62-16-32.744 0-34.23 16-62 16-28.076 0-28.938-16-62-16-32.742 0-34.257 16-62 16-28.075 0-28.937-16-62-16-32.744 0-34.259 16-62 16-28.074 0-28.937-16-62-16a8 8 0 0 0 0 16c28.075 0 28.936 16 62 16 32.743 0 34.229-16 62-16 28.075 0 28.937 16 62 16 32.743 0 34.227-16 62-16 28.075 0 28.938 16 62 16 32.744 0 34.259-16 62-16 28.077 0 28.941 16 62 16 32.746 0 34.232-16 62-16a8 8 0 0 0 0-16z"/><path d="m504 440c-32.746 0-34.231 16-62 16-28.078 0-28.94-16-62-16-32.744 0-34.23 16-62 16-28.076 0-28.938-16-62-16-32.742 0-34.257 16-62 16-28.075 0-28.937-16-62-16-32.744 0-34.259 16-62 16-28.074 0-28.937-16-62-16a8 8 0 0 0 0 16c28.075 0 28.936 16 62 16 32.743 0 34.229-16 62-16 13.556 0 19.939 3.294 27.329 7.109 8.071 4.167 17.224 8.891 34.671 8.891 32.743 0 34.227-16 62-16 28.075 0 28.938 16 62 16 32.744 0 34.259-16 62-16 28.077 0 28.941 16 62 16 32.746 0 34.232-16 62-16a8 8 0 0 0 0-16z"/><path d="m16 256h-8a8 8 0 0 0 0 16h288a8 8 0 0 0 0-16h-97.871l13.764-22.94 66.372 14.75c10.457 2.323 13.695-13.346 3.47-15.62l-50-11.112c15.365-8.897 24.265-8.964 24.265-17.078v-28h40a8 8 0 0 0 0-16h-159.245v-34.525c11.7 3.93 23.768 3.493 34.955-2.5 22.29-11.96 36.541-44.696 37.137-46.083a8 8 0 0 0 -5.911-11.025c-1.486-.273-36.636-6.52-58.936 5.433a41.6 41.6 0 0 0 -15.256 13.838 41.611 41.611 0 0 0 -15.253-13.838c-22.291-11.953-57.446-5.7-58.931-5.433a8 8 0 0 0 -5.912 11.025c.6 1.387 14.843 34.123 37.138 46.078 11.211 6.011 23.289 6.427 34.969 2.5v34.53h-112.755a8 8 0 0 0 0 16h8v28c0 7.941 8.838 8.275 20.482 15.185l-17.6 14.669c-4.675 3.893-2.205 8.908-2.882 22.146zm173.213-175.664c-12.7 22.434-29.1 39.62-52.219 27.986 3.1-25.641 26.456-29.912 52.219-27.986zm-120.919-.022c25.743-1.834 49.1 2.321 52.208 28.01-23.075 11.598-39.56-5.483-52.208-28.01zm31.425 175.686h-19.719v-28c0-7.526-8.177-8.2-14.482-12.185l9.382-7.815h46.156l5.333 8zm19.229 0 18.3-27.443 27.438 27.443zm63.464-4.9-40.2-40.2-1.935-2.9h25.5l31.24 18.744zm6.532-75.1h51.056v23.056l-31.649 15.824-29.882-17.929zm-17.888 0-8 16h-33.441l-10.667-16zm-139.056 23.056v-23.056h67.719l10.666 16h-38.385c-4.916 0-5.755 3.073-22.1 16zm0 44.691 20.1-16.747 11.9 5.944v23.056h-32z"/><path d="m48 352c26.916 0 48-14.056 48-32s-21.084-32-48-32-48 14.056-48 32 21.084 32 48 32zm0-48c18.315 0 32 8.447 32 16s-13.685 16-32 16-32-8.447-32-16 13.685-16 32-16z"/><path d="m192 324c0-15.7-17.57-28-40-28s-40 12.3-40 28 17.57 28 40 28 40-12.3 40-28zm-64 0c0-5.665 10.264-12 24-12s24 6.335 24 12-10.264 12-24 12-24-6.335-24-12z"/><path d="m40 392c0 17.944 21.084 32 48 32s48-14.056 48-32-21.084-32-48-32-48 14.056-48 32zm80 0c0 7.553-13.685 16-32 16s-32-8.447-32-16 13.685-16 32-16 32 8.447 32 16z"/><path d="m304 320c0-17.944-21.084-32-48-32s-48 14.056-48 32 21.084 32 48 32 48-14.056 48-32zm-80 0c0-7.553 13.685-16 32-16s32 8.447 32 16-13.685 16-32 16-32-8.447-32-16z"/><path d="m200 424c22.43 0 40-12.3 40-28s-17.57-28-40-28-40 12.3-40 28 17.57 28 40 28zm0-40c13.736 0 24 6.335 24 12s-10.264 12-24 12-24-6.335-24-12 10.264-12 24-12z"/><path d="m312 424c26.916 0 48-14.056 48-32s-21.084-32-48-32-48 14.056-48 32 21.084 32 48 32zm0-48c18.315 0 32 8.447 32 16s-13.685 16-32 16-32-8.447-32-16 13.685-16 32-16z"/><path d="m464 396c0-15.7-17.57-28-40-28s-40 12.3-40 28 17.57 28 40 28 40-12.3 40-28zm-64 0c0-5.665 10.264-12 24-12s24 6.335 24 12-10.264 12-24 12-24-6.335-24-12z"/><circle cx="392" cy="8" r="8"/></g></g></svg>