<svg id="Capa_1" enable-background="new 0 0 512.001 512.001" height="30" viewBox="0 0 512.001 512.001" width="30" xmlns="http://www.w3.org/2000/svg"><g><g><g><path d="m504.501 305.7c0 18.299-14.834 33.133-33.133 33.133h-248.5c-18.299 0-33.133-14.834-33.133-33.133v-248.5c0-18.299 14.834-33.133 33.133-33.133h248.5c18.299 0 33.133 14.834 33.133 33.133z" fill="#5c545f"/><path d="m504.501 57.2c0-18.299-14.835-33.133-33.133-33.133h-23c18.299 0 33.133 14.834 33.133 33.133v248.5c0 18.299-14.834 33.133-33.133 33.133h23c18.299 0 33.133-14.834 33.133-33.133z" fill="#4b3f4e"/><path d="m471.367 289.133c0 9.149-7.417 16.567-16.567 16.567h-215.366c-9.149 0-16.567-7.417-16.567-16.567v-215.367c0-9.149 7.417-16.567 16.567-16.567h215.367c9.15 0 16.567 7.417 16.567 16.567z" fill="#9dc6fb"/><path d="m471.367 73.767c0-9.149-7.417-16.567-16.567-16.567h-23c9.149 0 16.567 7.417 16.567 16.567v215.367c0 9.149-7.417 16.567-16.567 16.567h23c9.15 0 16.567-7.417 16.567-16.567z" fill="#80b4fb"/><g><circle cx="272.567" cy="106.9" fill="#ecf4ff" r="16.567"/></g></g><g><path d="m140.034 351.393v-293.375c0-27.254-21.6-50.056-48.85-50.511-27.838-.465-50.55 21.962-50.55 49.693v294.192c0 2.484-1.127 4.822-3.041 6.405-18.603 15.378-30.377 38.723-30.087 64.812.493 44.355 36.486 80.824 80.831 81.868 46.661 1.098 84.83-36.399 84.83-82.81 0-25.71-11.715-48.682-30.097-63.875-1.912-1.581-3.036-3.918-3.036-6.399z" fill="#ecf4ff"/><path d="m106.901 369.285v-204.402c0-4.575-3.709-8.283-8.283-8.283h-16.567c-4.575 0-8.283 3.709-8.283 8.283v204.354c0 3.178-1.781 6.128-4.653 7.486-17.626 8.335-29.567 26.723-28.402 47.769 1.405 25.389 22.216 45.84 47.624 46.835 28.358 1.111 51.698-21.549 51.698-49.661 0-19.804-11.587-36.894-28.348-44.881-2.907-1.384-4.786-4.281-4.786-7.5z" fill="#ff8086"/><path d="m143.071 357.792c-1.913-1.581-3.036-3.918-3.036-6.4v-293.374c0-27.254-21.6-50.056-48.85-50.511-4.288-.071-8.452.404-12.432 1.354 22.043 5.3 38.249 25.552 38.249 49.157v293.374c0 2.481 1.124 4.819 3.036 6.4 18.381 15.193 30.097 38.164 30.097 63.874 0 41.821-30.997 76.389-71.267 82.018 3.108.435 6.264.717 9.47.793 46.661 1.098 84.831-36.399 84.831-82.81-.001-25.71-11.717-48.682-30.098-63.875z" fill="#ddeafb"/><path d="m111.686 376.786c-2.906-1.385-4.785-4.281-4.785-7.5v-204.403c0-4.575-3.709-8.283-8.283-8.283h-16.567c-1.141 0-2.228.231-3.217.648 2.977 1.256 5.067 4.201 5.067 7.635v204.402c0 3.219 1.879 6.116 4.785 7.5 16.762 7.987 28.348 25.077 28.348 44.881 0 23.487-16.296 43.156-38.195 48.349 3.07.734 6.245 1.185 9.497 1.312 28.358 1.111 51.698-21.549 51.698-49.661 0-19.803-11.587-36.894-28.348-44.88z" fill="#e5646e"/></g></g><g><path d="m147.849 352.013c-.2-.166-.315-.392-.315-.62v-293.375c0-31.469-25.223-57.492-56.226-58.01-15.422-.259-30.058 5.568-41.079 16.407-11.023 10.841-17.094 25.325-17.094 40.785v84.4c0 4.142 3.357 7.5 7.5 7.5s7.5-3.358 7.5-7.5v-84.4c0-11.406 4.479-22.092 12.612-30.091 8.131-7.996 18.865-12.284 30.312-12.103 22.869.382 41.476 19.677 41.476 43.012v293.374c0 4.715 2.099 9.155 5.758 12.181 17.398 14.379 27.376 35.553 27.376 58.093 0 20.458-8.062 39.599-22.699 53.896-14.632 14.292-33.95 21.906-54.455 21.416-40.087-.943-73.062-34.343-73.508-74.454-.255-22.875 9.72-44.36 27.364-58.947 3.664-3.027 5.765-7.469 5.765-12.186v-179.791c0-4.142-3.357-7.5-7.5-7.5s-7.5 3.358-7.5 7.5v179.792c0 .228-.116.456-.32.624-21.155 17.489-33.113 43.249-32.809 70.676.261 23.407 9.542 45.554 26.134 62.361 16.595 16.81 38.621 26.371 62.02 26.921.734.017 1.465.026 2.197.026 23.738-.001 46.07-9.081 63.093-25.707 17.552-17.144 27.218-40.095 27.218-64.627-.001-27.027-11.963-52.415-32.82-69.653z"/><path d="m98.617 149.1h-16.566c-8.703 0-15.783 7.08-15.783 15.783v204.354c0 .311-.15.607-.359.706-21.149 10.002-33.979 31.577-32.684 54.964 1.61 29.091 25.689 52.774 54.818 53.915.776.031 1.549.045 2.32.045 14.864 0 28.855-5.621 39.613-15.965 11.322-10.887 17.558-25.532 17.558-41.235 0-21.934-12.805-42.208-32.621-51.651-.315-.15-.512-.43-.512-.729v-204.404c0-8.703-7.081-15.783-15.784-15.783zm33.917 272.567c0 11.586-4.601 22.39-12.954 30.423-8.349 8.028-19.336 12.2-30.949 11.744-21.483-.842-39.242-18.305-40.43-39.756-.956-17.267 8.512-33.194 24.118-40.574 5.436-2.569 8.948-8.169 8.948-14.267v-204.354c0-.432.352-.783.783-.783h16.566c.433 0 .784.351.784.783v204.402c0 6.047 3.556 11.648 9.059 14.271 14.626 6.969 24.075 21.929 24.075 38.111z"/><path d="m272.567 130.967c13.271 0 24.067-10.796 24.067-24.067 0-13.27-10.797-24.066-24.067-24.066s-24.066 10.796-24.066 24.066c0 13.271 10.796 24.067 24.066 24.067zm0-33.133c5 0 9.067 4.067 9.067 9.066 0 5-4.067 9.067-9.067 9.067-4.999 0-9.066-4.067-9.066-9.067 0-4.999 4.067-9.066 9.066-9.066z"/><path d="m380.832 280.067c21.293 0 40.311-6.913 54.995-19.992 2.883-2.567 5.626-5.397 8.153-8.411 2.662-3.173 2.247-7.904-.926-10.566-3.174-2.662-7.904-2.247-10.566.926-2.062 2.459-4.296 4.763-6.638 6.849-12.064 10.745-27.211 16.193-45.018 16.193-46.107 0-83.617-37.51-83.617-83.617 0-46.106 37.511-83.617 83.617-83.617 16.757 0 32.921 4.937 46.745 14.276 3.432 2.319 8.094 1.416 10.413-2.016 2.318-3.433 1.416-8.095-2.017-10.414-16.314-11.021-35.381-16.846-55.142-16.846-54.378 0-98.617 44.239-98.617 98.617s44.24 98.618 98.618 98.618z"/><path d="m215.367 73.767.001 215.367c0 13.27 10.796 24.067 24.066 24.067h215.366c13.27 0 24.067-10.796 24.067-24.067l-.001-215.367c0-13.27-10.796-24.066-24.066-24.066h-215.366c-13.27-.001-24.067 10.796-24.067 24.066zm248.5 0 .001 215.367c0 4.999-4.067 9.067-9.067 9.067h-215.367c-4.999 0-9.066-4.067-9.066-9.067l-.001-215.367c0-4.999 4.067-9.066 9.067-9.066h215.366c5-.001 9.067 4.067 9.067 9.066z"/><path d="m471.367 16.567h-183.799c-4.143 0-7.5 3.358-7.5 7.5s3.357 7.5 7.5 7.5h183.799c14.135 0 25.634 11.499 25.634 25.633v248.5c0 14.134-11.499 25.633-25.633 25.633h-248.5c-14.135 0-25.634-11.499-25.634-25.633v-248.5c0-14.134 11.499-25.633 25.633-25.633h34.7c4.143 0 7.5-3.358 7.5-7.5s-3.357-7.5-7.5-7.5h-34.7c-22.405 0-40.633 18.228-40.633 40.633v248.5c0 22.405 18.229 40.633 40.634 40.633h248.5c22.405 0 40.633-18.228 40.633-40.633v-248.5c0-22.405-18.229-40.633-40.634-40.633z"/></g></g></svg>