<svg height="480pt" viewBox="0 -95 480.736 480" width="480pt" xmlns="http://www.w3.org/2000/svg"><path d="m309.335938 110.867188c-2.984376 0-5.398438-2.417969-5.398438-5.402344v-71.292969c0-10.917969 8.878906-19.800781 19.796875-19.800781h53.101563c10.917968 0 19.800781 8.882812 19.800781 19.800781v22.5c0 2.980469-2.417969 5.398437-5.402344 5.398437-2.980469 0-5.398437-2.417968-5.398437-5.398437v-22.5c0-4.964844-4.039063-9-9-9h-53.101563c-4.960937 0-9 4.035156-9 9v71.292969c0 2.984375-2.414063 5.402344-5.398437 5.402344zm0 0" fill="#e0ebfc"/><path d="m309.335938 114.867188c-5.183594 0-9.398438-4.21875-9.398438-9.402344v-71.296875c0-13.125 10.675781-23.800781 23.796875-23.800781h53.101563c13.125 0 23.796874 10.675781 23.796874 23.800781v22.5c0 5.183593-4.214843 9.398437-9.398437 9.398437s-9.398437-4.214844-9.398437-9.398437v-22.5c0-2.757813-2.242188-5-5-5h-53.101563c-2.757813 0-5 2.242187-5 5v71.296875c0 5.183594-4.214844 9.402344-9.398437 9.402344zm14.398437-96.496094c-8.707031 0-15.796875 7.085937-15.796875 15.800781v71.292969c0 .773437.628906 1.402344 1.402344 1.402344.769531 0 1.394531-.628907 1.394531-1.402344v-71.296875c0-7.167969 5.832031-13 13-13h53.105469c7.167968 0 13 5.832031 13 13v22.5c0 .773437.625 1.398437 1.394531 1.398437.773437 0 1.402344-.625 1.402344-1.398437v-22.5c0-8.710938-7.089844-15.800781-15.796875-15.800781h-53.105469zm0 0" fill="#3762cc"/><path d="m81.882812 176.425781h48.925782v52.078125h-48.925782zm0 0" fill="#e0ebfc"/><path d="m130.808594 232.507812h-48.925782c-2.207031 0-4-1.792968-4-4v-52.082031c0-2.210937 1.792969-4 4-4h48.925782c2.210937 0 4 1.789063 4 4v52.082031c0 2.207032-1.789063 4-4 4zm-44.925782-8h40.925782v-44.082031h-40.925782zm0 0" fill="#3762cc"/><path d="m111.871094 192.261719c0-13.464844-11.207032-24.53125-25.554688-25.828125 0-.046875.003906-.085938.003906-.132813 0-11.648437-8.386718-21.507812-19.945312-24.792969-2.664062-.757812-5.5-1.164062-8.441406-1.164062s-5.773438.40625-8.441406 1.164062c-11.554688 3.289063-19.945313 13.144532-19.945313 24.792969 0 .046875.003906.085938.003906.132813-14.347656 1.300781-25.554687 12.367187-25.554687 25.832031 0 5.851563 2.144531 11.230469 5.714844 15.574219-3.570313 4.34375-5.714844 9.722656-5.714844 15.574218 0 13.464844 11.207031 24.53125 25.554687 25.832032 0 .042968-.003906.085937-.003906.128906 0 11.652344 8.390625 21.507812 19.945313 24.796875 2.664062.757813 5.5 1.164063 8.441406 1.164063s5.773437-.40625 8.441406-1.164063c11.558594-3.289063 19.945312-13.144531 19.945312-24.796875 0-.042969-.003906-.085938-.003906-.132812 14.347656-1.296876 25.554688-12.363282 25.554688-25.828126 0-5.851562-2.144532-11.234374-5.714844-15.574218 3.570312-4.34375 5.714844-9.726563 5.714844-15.578125zm0 0" fill="#e0ebfc"/><g fill="#6bdddd"><path d="m96.570312 195.171875h-5c-2.210937 0-4-1.792969-4-4v-5c0-2.210937 1.789063-4 4-4h5c2.210938 0 4 1.789063 4 4v5c0 2.207031-1.792968 4-4 4zm0 0"/><path d="m34.9375 192.609375h-5c-2.210938 0-4-1.792969-4-4v-5c0-2.210937 1.789062-4 4-4h5c2.207031 0 4 1.789063 4 4v5c0 2.207031-1.792969 4-4 4zm0 0"/><path d="m30.4375 231.007812h-5c-2.210938 0-4-1.792968-4-4v-5c0-2.210937 1.789062-4 4-4h5c2.207031 0 4 1.789063 4 4v5c0 2.207032-1.792969 4-4 4zm0 0"/><path d="m55.296875 260.4375h-5c-2.207031 0-4-1.792969-4-4v-5c0-2.210938 1.792969-4 4-4h5c2.210937 0 4 1.789062 4 4v5c0 2.207031-1.789063 4-4 4zm0 0"/><path d="m68.296875 214.339844h-5c-2.207031 0-4-1.792969-4-4v-5c0-2.210938 1.792969-4 4-4h5c2.210937 0 4 1.789062 4 4v5c0 2.207031-1.789063 4-4 4zm0 0"/><path d="m61.796875 168.097656h-5c-2.207031 0-4-1.789062-4-4v-5c0-2.210937 1.792969-4 4-4h5c2.210937 0 4 1.789063 4 4v5c0 2.210938-1.789063 4-4 4zm0 0"/><path d="m90.882812 239.71875h-5c-2.210937 0-4-1.789062-4-4v-5c0-2.210938 1.789063-4 4-4h5c2.210938 0 4 1.789062 4 4v5c0 2.210938-1.792968 4-4 4zm0 0"/></g><path d="m57.9375 279.339844c-3.246094 0-6.457031-.445313-9.539062-1.320313-12.496094-3.554687-21.242188-13.476562-22.652344-25.273437-14.898438-2.84375-25.746094-14.933594-25.746094-29.332032 0-5.554687 1.628906-10.882812 4.742188-15.578124-3.113282-4.695313-4.742188-10.023438-4.742188-15.578126 0-14.398437 10.847656-26.488281 25.746094-29.332031 1.410156-11.792969 10.15625-21.71875 22.652344-25.273437 6.160156-1.75 12.910156-1.75 19.070312 0 12.496094 3.554687 21.242188 13.480468 22.652344 25.273437 14.898437 2.839844 25.75 14.933594 25.75 29.332031 0 5.554688-1.632813 10.882813-4.746094 15.578126 3.113281 4.695312 4.746094 10.023437 4.746094 15.578124 0 14.398438-10.851563 26.492188-25.75 29.332032-1.410156 11.792968-10.15625 21.71875-22.652344 25.273437-3.078125.875-6.285156 1.320313-9.53125 1.320313zm-24.390625-29.851563c.054687 9.585938 6.890625 17.949219 17.042969 20.835938 4.738281 1.347656 9.957031 1.347656 14.695312 0 10.164063-2.890625 17-11.269531 17.039063-20.867188-.003907-.074219-.003907-.15625-.003907-.210937 0-2.070313 1.578126-3.796875 3.636719-3.984375 12.496094-1.132813 21.917969-10.527344 21.917969-21.847657 0-4.707031-1.664062-9.214843-4.804688-13.035156-1.214843-1.476562-1.214843-3.605468 0-5.082031 3.140626-3.820313 4.804688-8.328125 4.804688-13.035156 0-11.324219-9.421875-20.714844-21.917969-21.851563-2.058593-.183594-3.636719-1.914062-3.636719-3.980468 0-.058594 0-.140626.003907-.21875-.039063-9.59375-6.875-17.96875-17.039063-20.859376-4.738281-1.347656-9.957031-1.347656-14.695312 0-10.152344 2.886719-16.988282 11.25-17.042969 20.835938.003906.085938.007813.175781.007813.242188 0 2.066406-1.578126 3.792968-3.636719 3.980468-12.492188 1.132813-21.914063 10.527344-21.914063 21.847656 0 4.707032 1.660156 9.214844 4.800782 13.035157 1.214843 1.476562 1.214843 3.605469 0 5.082031-3.140626 3.820312-4.800782 8.328125-4.800782 13.035156 0 11.324219 9.421875 20.714844 21.914063 21.851563 2.058593.183593 3.636719 1.914062 3.636719 3.980469 0 .070312-.003907.160156-.007813.246093zm0 0" fill="#3762cc"/><path d="m465.46875 285.464844h-305.464844c-6.222656 0-11.269531-5.042969-11.269531-11.265625v-157.464844c0-6.222656 5.046875-11.269531 11.269531-11.269531h305.464844c6.222656 0 11.265625 5.046875 11.265625 11.269531v157.464844c0 6.222656-5.042969 11.265625-11.265625 11.265625zm0 0" fill="#b9befc"/><path d="m148.734375 236.566406h-15.085937c-1.566407 0-2.839844-1.269531-2.839844-2.839844v-62.71875c0-1.566406 1.273437-2.839843 2.839844-2.839843h15.085937zm0 0" fill="#f9cfcf"/><path d="m439.835938 105.464844h-97.199219v-27.195313c0-5.964843 4.835937-10.800781 10.800781-10.800781h75.597656c5.964844 0 10.800782 4.835938 10.800782 10.800781zm0 0" fill="#f9cfcf"/><path d="m402.035156 67.46875h-21.597656v-18c0-1.988281 1.609375-3.597656 3.597656-3.597656h14.402344c1.988281 0 3.597656 1.609375 3.597656 3.597656zm0 0" fill="#f9cfcf"/><path d="m465.46875 289.464844h-305.464844c-8.417968 0-15.269531-6.847656-15.269531-15.269532v-157.464843c0-8.417969 6.851563-15.265625 15.269531-15.265625h305.464844c8.417969 0 15.265625 6.847656 15.265625 15.265625v157.464843c0 8.421876-6.847656 15.269532-15.265625 15.269532zm-305.464844-180c-4.007812 0-7.269531 3.257812-7.269531 7.265625v157.464843c0 4.007813 3.261719 7.269532 7.269531 7.269532h305.464844c4.007812 0 7.265625-3.261719 7.265625-7.269532v-157.464843c0-4.007813-3.257813-7.265625-7.265625-7.265625zm0 0" fill="#3762cc"/><path d="m148.734375 240.566406h-15.085937c-3.769532 0-6.839844-3.066406-6.839844-6.839844v-62.71875c0-3.773437 3.070312-6.839843 6.839844-6.839843h15.085937c2.210937 0 4 1.792969 4 4v68.398437c0 2.210938-1.789063 4-4 4zm-13.925781-8h9.925781v-60.398437h-9.925781zm0 0" fill="#3762cc"/><path d="m439.835938 109.464844h-97.203126c-2.207031 0-4-1.792969-4-4v-27.195313c0-8.164062 6.640626-14.800781 14.800782-14.800781h75.601562c8.160156 0 14.800782 6.636719 14.800782 14.800781v27.195313c0 2.210937-1.789063 4-4 4zm-93.199219-8h89.203125v-23.195313c0-3.75-3.050782-6.800781-6.800782-6.800781h-75.601562c-3.75 0-6.800781 3.050781-6.800781 6.800781zm0 0" fill="#3762cc"/><path d="m402.035156 71.46875h-21.597656c-2.210938 0-4-1.792969-4-4v-18c0-4.191406 3.40625-7.601562 7.597656-7.601562h14.402344c4.191406 0 7.597656 3.410156 7.597656 7.601562v18c0 2.210938-1.792968 4-4 4zm-17.597656-8h13.597656v-13.601562h-13.597656zm0 0" fill="#3762cc"/><path d="m242.835938 202.367188h-8.613282c-9.550781 0-17.292968-7.742188-17.292968-17.296876v-163.410156c0-9.550781 7.742187-17.292968 17.292968-17.292968h8.613282c9.550781 0 17.292968 7.742187 17.292968 17.292968v163.410156c0 9.554688-7.742187 17.296876-17.292968 17.296876zm0 0" fill="#4671c6"/><path d="m242.835938 206.367188h-8.613282c-11.742187 0-21.292968-9.550782-21.292968-21.292969v-163.414063c0-11.738281 9.550781-21.292968 21.292968-21.292968h8.613282c11.742187 0 21.292968 9.554687 21.292968 21.292968v163.414063c.003906 11.738281-9.550781 21.292969-21.292968 21.292969zm-8.609376-198c-7.332031 0-13.292968 5.964843-13.292968 13.292968v163.414063c0 7.328125 5.960937 13.292969 13.292968 13.292969h8.613282c7.328125 0 13.292968-5.964844 13.292968-13.292969v-163.414063c0-7.328125-5.964843-13.292968-13.292968-13.292968zm0 0" fill="#3762cc"/></svg>