<svg id="Capa_1" enable-background="new 0 0 511.955 511.955" height="25px" viewBox="0 0 511.955 511.955" width="25px" xmlns="http://www.w3.org/2000/svg" xmlns:xlink="http://www.w3.org/1999/xlink"><linearGradient id="SVGID_1_" gradientUnits="userSpaceOnUse" x1="235.984" x2="235.984" y1="511.955" y2="39.986"><stop offset="0" stop-color="#ffe59a"/><stop offset="1" stop-color="#ffffd5"/></linearGradient><linearGradient id="SVGID_2_" gradientUnits="userSpaceOnUse" x1="276.708" x2="276.708" y1="470.493" y2="0"><stop offset="0" stop-color="#fd5900"/><stop offset="1" stop-color="#ffde00"/></linearGradient><g><g><g><path d="m440.149 71.806-74.246-31.82-42.426 42.427 31.82 74.246 74.246 31.82 42.426-42.427zm-319.138 276.711-79.549 21.426-40.729 122.187c-1.697 5.517-.425 11.456 3.606 15.487s9.97 5.303 15.487 3.606l122.187-40.729 21.426-79.55h-42.426v-42.427z" fill="url(#SVGID_1_)"/></g></g><g><g><path d="m489.999 21.956c-29.274-29.274-76.792-29.274-106.066 0l-18.031 18.031 106.066 106.066 18.031-18.031c29.275-29.275 29.275-76.792 0-106.066zm-443.234 337.168c-3.625 3.625-4.059 7.672-5.303 10.819l58.336-.212v42.427h42.426l-.212 58.336c3.083-1.219 7.229-1.714 10.819-5.303l276.711-276.711-106.066-106.067z" fill="url(#SVGID_2_)"/></g></g></g></svg>