<?xml version="1.0" encoding="iso-8859-1"?>
<!-- Generator: Adobe Illustrator 19.0.0, SVG Export Plug-In . SVG Version: 6.00 Build 0)  -->
<svg version="1.1" id="Layer_1" xmlns="http://www.w3.org/2000/svg" xmlns:xlink="http://www.w3.org/1999/xlink" x="0px" y="0px"
	 viewBox="0 0 511.999 511.999" style="enable-background:new 0 0 511.999 511.999;" xml:space="preserve">
<path style="fill:#456173;" d="M500.886,237.057l-47.154,47.154l-12.469,12.469l-18.959,18.959l-78.582-78.582l31.428-31.428
	l26.45,26.45c-11.513-70.258-72.492-123.858-145.995-123.858c-68.88,0-126.769,47.076-143.261,110.799l-22.649-22.66l-18.959,18.959
	C89.417,130.414,165.098,66.89,255.605,66.89c96.263,0,175.734,71.858,187.726,164.854l26.127-26.116L500.886,237.057z"/>
<path style="fill:#28CC9E;" d="M441.263,296.68c-18.681,84.905-94.363,148.429-184.869,148.429
	c-96.263,0-175.734-71.847-187.726-164.854l-26.127,26.127l-31.428-31.439L58.266,227.8l12.469-12.48l18.959-18.959l22.649,22.66
	l8.779,8.779l47.154,47.143l-31.428,31.439l-26.45-26.45c11.513,70.247,72.492,123.846,145.995,123.846
	c68.88,0,126.769-47.065,143.25-110.799l22.66,22.66L441.263,296.68z"/>
<path d="M508.744,229.199l-31.428-31.428c-4.34-4.34-11.374-4.34-15.715-0.002l-11.194,11.189
	c-21.43-88.692-101.657-153.18-194.801-153.18c-45.932,0-90.816,15.934-126.382,44.868c-34.199,27.82-58.463,66.45-68.597,109.068
	l-57.37,57.37c-4.34,4.339-4.341,11.376-0.002,15.716l31.428,31.439c2.084,2.085,4.911,3.256,7.859,3.256l0,0
	c2.947,0,5.774-1.171,7.858-3.255l11.193-11.193c21.429,88.692,101.654,153.175,194.801,153.175
	c45.932,0,90.816-15.934,126.382-44.868c34.199-27.82,58.462-66.45,68.597-109.068l57.372-57.371
	C513.084,240.575,513.084,233.539,508.744,229.199z M256.394,433.995c-89.333,0-165.299-66.705-176.703-155.163
	c-0.541-4.202-3.426-7.73-7.436-9.097c-1.175-0.4-2.385-0.596-3.585-0.596c-2.899,0-5.741,1.137-7.859,3.255l-18.268,18.268
	l-15.714-15.72L78.59,223.18c0.001-0.001,0.002-0.002,0.003-0.003l11.099-11.099l14.791,14.797c0.02,0.02,0.042,0.034,0.062,0.054
	l48.016,48.014l-15.714,15.72l-18.59-18.59c-3.412-3.412-8.636-4.233-12.93-2.03c-4.294,2.203-6.676,6.924-5.894,11.687
	c6.032,36.802,25.027,70.506,53.485,94.905c28.776,24.67,65.524,38.256,103.477,38.256c66.192,0,124.714-40.786,148.231-101.215
	l9.82,9.82c0.35,0.35,0.723,0.661,1.106,0.956c0.102,0.079,0.206,0.153,0.311,0.229c0.338,0.241,0.683,0.463,1.04,0.662
	c0.06,0.033,0.117,0.072,0.177,0.104c0.411,0.219,0.835,0.405,1.265,0.569c0.111,0.042,0.223,0.079,0.336,0.117
	c0.36,0.124,0.725,0.23,1.094,0.316c0.064,0.016,0.128,0.042,0.192,0.056C392.168,390.366,327.932,433.995,256.394,433.995z
	 M335.864,244.915l51.307,51.307c-17.571,57.091-70.469,96.443-130.777,96.443c-53.282,0-99.948-30.137-122.512-75.574
	c0.958,0.266,1.956,0.403,2.967,0.403c2.947,0,5.774-1.171,7.858-3.256l31.428-31.439c4.339-4.341,4.338-11.377-0.002-15.716
	L124.82,215.77c17.587-57.088,70.487-96.436,130.784-96.436c53.286,0,99.953,30.138,122.515,75.585
	c-0.959-0.266-1.957-0.403-2.969-0.403c-2.947,0-5.774,1.171-7.858,3.255l-31.428,31.428
	C331.524,233.539,331.524,240.575,335.864,244.915z M433.412,288.815c-0.002,0.002-0.004,0.004-0.007,0.007l-11.101,11.101
	l-14.802-14.802c-0.001-0.001-0.003-0.002-0.004-0.003l-48.059-48.059l15.712-15.712l18.591,18.591
	c3.412,3.412,8.636,4.232,12.93,2.03c4.294-2.203,6.676-6.924,5.896-11.686c-6.031-36.807-25.026-70.515-53.485-94.915
	c-28.776-24.673-65.525-38.26-103.478-38.26c-66.183,0-124.707,40.782-148.237,101.21l-9.813-9.813
	c-0.339-0.339-0.703-0.645-1.079-0.934c-0.1-0.077-0.2-0.151-0.302-0.224c-0.343-0.247-0.696-0.476-1.064-0.681
	c-0.048-0.027-0.092-0.058-0.14-0.084c-0.41-0.221-0.837-0.409-1.27-0.577c-0.113-0.044-0.228-0.083-0.343-0.123
	c-0.376-0.131-0.758-0.243-1.147-0.335c-0.059-0.013-0.116-0.038-0.174-0.051c27.794-63.86,92.031-107.491,163.57-107.491
	c89.332,0,165.298,66.705,176.703,155.163c0.542,4.202,3.425,7.729,7.435,9.097c4.011,1.368,8.448,0.337,11.443-2.658l18.269-18.261
	l15.713,15.714L433.412,288.815z"/>
<path d="M256.394,155.797h-0.318c-6.138,0.041-11.08,5.05-11.039,11.188c0.041,6.112,5.009,11.039,11.112,11.039
	c0.024,0,0.051,0,0.076,0h0.169c6.138,0,11.113-4.975,11.113-11.113S262.532,155.797,256.394,155.797z"/>
<path d="M218.509,163.224c-20.381,8.347-37.693,23.467-48.745,42.573c-3.074,5.312-1.258,12.111,4.054,15.184
	c1.753,1.014,3.665,1.496,5.554,1.496c3.837,0,7.57-1.989,9.63-5.55c8.605-14.873,22.075-26.641,37.931-33.134
	c5.68-2.326,8.398-8.816,6.072-14.496C230.678,163.616,224.186,160.899,218.509,163.224z"/>
<g>
</g>
<g>
</g>
<g>
</g>
<g>
</g>
<g>
</g>
<g>
</g>
<g>
</g>
<g>
</g>
<g>
</g>
<g>
</g>
<g>
</g>
<g>
</g>
<g>
</g>
<g>
</g>
<g>
</g>
</svg>
