<svg height="459pt" viewBox="-1 0 459 459.194" width="459pt" xmlns="http://www.w3.org/2000/svg"><path d="m144.019531 39.484375h300v380h-300zm0 0" fill="#ffc34c"/><path d="m426.019531 407.480469c-3.3125 0-6-2.683594-6-6v-119.445313c0-3.316406 2.6875-6 6-6 3.316407 0 6 2.683594 6 6v119.445313c0 3.316406-2.683593 6-6 6zm0 0" fill="#ffd551"/><path d="m144.019531 39.484375h60v380h-60zm0 0" fill="#f9bb32"/><path d="m414.019531 220.484375c0 66.273437-53.722656 120-120 120-66.273437 0-120-53.726563-120-120s53.726563-120 120-120c66.277344 0 120 53.726563 120 120zm0 0" fill="#ffdf74"/><path d="m204.019531 141.121094c-18.667969 21.152344-30 48.929687-30 79.359375 0 30.429687 11.332031 58.210937 30 79.363281zm0 0" fill="#ffd551"/><path d="m447.746094 0h-307.449219c-7.457031 0-12.292969 7.867188-8.921875 14.519531l12.644531 24.960938h300l12.648438-24.960938c3.367187-6.652343-1.464844-14.519531-8.921875-14.519531zm0 0" fill="#db9c2e"/><path d="m140.296875 458.964844h307.449219c7.453125 0 12.289062-7.863282 8.917968-14.515625l-12.644531-24.964844h-300l-12.648437 24.964844c-3.367188 6.652343 1.46875 14.515625 8.925781 14.515625zm0 0" fill="#db9c2e"/><path d="m102.160156 203.585938h17.78125v212.339843h-17.78125zm0 0" fill="#ccc033"/><path d="m102.160156 203.585938h11.308594v212.339843h-11.308594zm0 0" fill="#99af17"/><path d="m119.8125 260.320312c98.019531-8.835937 89.855469-84.1875 84.84375-107.730468-.847656-3.976563-5.996094-5.628906-11.359375-3.652344-32.390625 11.941406-133.003906 54.605469-83.527344 108.277344 2.164063 2.347656 5.847657 3.484375 10.042969 3.105468zm0 0" fill="#ccc033"/><path d="m205.816406 158.878906c-.371094-2.367187-.777344-4.484375-1.160156-6.289062-.84375-3.976563-5.996094-5.628906-11.355469-3.652344-14.71875 5.421875-43.511719 17.1875-65.914062 33.445312-.40625.296876-.8125.589844-1.210938.890626-.054687.039062-.109375.078124-.164062.117187-.347657.261719-.695313.519531-1.042969.785156-.074219.054688-.148438.113281-.222656.167969-.324219.246094-.644532.492188-.964844.742188-.089844.066406-.179688.136718-.269531.207031-.304688.238281-.609375.476562-.910157.714843-.09375.074219-.1875.144532-.277343.21875-.304688.242188-.601563.484376-.902344.726563-.085937.070313-.175781.144531-.261719.210937-.304687.25-.609375.5-.910156.75-.078125.0625-.15625.128907-.234375.195313-.316406.265625-.628906.527344-.945313.796875-.058593.050781-.121093.101562-.179687.152344-.363281.308594-.71875.617187-1.074219.929687-.007812.007813-.015625.015625-.023437.023438-1.117188.976562-2.207031 1.972656-3.261719 2.980469-.042969.042968-.085938.082031-.128906.125-.296875.285156-.59375.570312-.886719.855468-.074219.074219-.148437.148438-.226563.222656-.257812.257813-.515624.515626-.769531.773438-.089843.089844-.175781.179688-.265625.269531-.238281.242188-.476562.484375-.707031.730469-.097656.097656-.191406.199219-.289063.300781-.222656.238281-.445312.472657-.667968.710938-.097656.105469-.195313.210937-.289063.316406-.21875.238281-.4375.476563-.648437.714844-.09375.105469-.1875.207031-.277344.308593-.214844.246094-.429688.492188-.644531.738282-.085938.097656-.171875.199218-.253907.296875-.222656.257812-.441406.519531-.65625.777343-.070312.085938-.144531.171876-.214843.261719-.25.300781-.492188.601563-.734375.902344-.035156.046875-.070313.089844-.105469.136719-.566406.710937-1.113281 1.433594-1.640625 2.15625-.007812.011718-.015625.023437-.023438.03125-.25.339844-.492187.683594-.730468 1.027344-.058594.082031-.113282.167968-.171875.25-.1875.273437-.371094.546874-.554688.816406-.070312.109375-.140625.21875-.214843.328125-.160157.25-.324219.5-.480469.75-.078125.121093-.152344.246093-.226563.367187-.148437.238282-.296875.476563-.441406.71875-.078125.132813-.152344.261719-.226562.390625-.140626.234375-.277344.46875-.40625.707031-.078126.132813-.152344.265626-.226563.398438-.128906.238281-.257813.472656-.382813.710938-.070312.128906-.140624.265624-.210937.398437-.128906.242187-.25.484375-.371094.726563-.0625.128906-.128906.253906-.191406.382812-.121094.253906-.242187.511719-.359375.765625-.054688.117187-.109375.234375-.164062.351563-.132813.285156-.253907.574218-.378907.859374-.035156.085938-.074219.171876-.113281.261719-.316406.757813-.609375 1.519531-.882812 2.289063-.023438.070312-.046876.144531-.070313.21875-.109375.304687-.210937.609375-.308594.917968-.039062.121094-.070312.242188-.109375.363282-.078125.261718-.15625.523437-.234375.785156-.039062.136719-.074219.277344-.113281.417969-.0625.242187-.128906.488281-.191406.734375-.035156.148437-.070313.300781-.105469.453125-.058594.234375-.109375.46875-.160156.707031-.035157.15625-.066407.3125-.097657.46875-.046874.234375-.089843.46875-.132812.703125-.027344.15625-.054688.316406-.082031.476563-.035157.234374-.074219.46875-.105469.703124-.019531.15625-.042969.316407-.066406.476563-.027344.238281-.054688.476563-.082032.71875-.015624.15625-.03125.308594-.046874.460937-.023438.25-.039063.503907-.058594.753907-.007813.144531-.019532.289062-.03125.433593-.015625.28125-.023438.5625-.03125.84375-.003906.117188-.011719.230469-.011719.351563-.015625.796875-.003906 1.601563.039063 2.410156.007812.113281.019531.226563.027343.339844.015625.289063.035157.578125.0625.867187.015625.152344.03125.300782.046875.449219.027344.257813.054688.511719.089844.769531.019531.164063.046875.324219.070312.488282.03125.246094.070313.488281.109376.730468.03125.171876.0625.34375.089843.515626.046875.234374.089844.476562.140625.714843.035156.175781.074219.351563.109375.527344.054688.234375.109375.472656.164063.710937.042968.175782.085937.351563.132812.527344.0625.242188.128906.480469.195313.722656.046875.171876.097656.347657.148437.523438.074219.246094.148438.488281.226563.734375.054687.171875.109375.34375.167969.515625.082031.253906.175781.507812.265624.761719.058594.164062.113282.324219.175782.488281.105468.285156.21875.566406.328125.851562.054687.132813.105469.269532.164062.40625.167969.40625.34375.816407.527344 1.226563.003906.011719.007813.023437.015625.035156.191406.421875.390625.84375.597656 1.269531.066406.132813.140625.269532.207032.40625.144531.289063.292968.574219.445312.863282.089844.167968.183594.332031.273438.496094.140624.261718.285156.523437.433593.78125.101563.179687.203125.355468.3125.535156.144531.25.292969.5.445313.75.113281.183594.230468.367187.347656.550781.152344.246094.308594.492187.472656.738281.121094.1875.246094.375.371094.5625.164062.246094.332031.488282.5.734375.132812.1875.265625.375.394531.5625.175781.25.359375.496094.542969.746094.132812.183594.273438.371094.414062.554687.1875.253907.382813.507813.582032.757813.140625.183594.28125.367187.425781.550781.210937.261719.425781.523438.640625.789063.144531.171875.28125.34375.425781.515625.242188.292968.496094.585937.753907.878906.121093.144531.242187.289062.371093.433594.386719.4375.777344.878906 1.183594 1.316406.191406.207031.398437.402344.617187.589844.097657.082031.199219.164062.300782.242187.113281.089844.226562.175781.34375.257813.140625.101562.285156.199218.433594.292968.0625.039063.132812.078126.199218.117188.453125.273438.933594.523438 1.445313.730469 2.226562.226562 4.492187.421875 6.8125.582031 1.035156.074219 2.039062.050781 3.011719-.027344.320312-.035156.644531-.0625.960937-.101562 3.292969-.441406 6.089844-1.753906 7.910156-3.8125 20.757813-23.472656 18.339844-44.761719 4.9375-63.023438 22.402344-16.25 51.171875-28.007812 65.882813-33.429687 1.089844-.402344 2.160156-.644531 3.195312-.757813zm0 0" fill="#99af17"/><path d="m102.394531 263.230469c-115.625-19.375-99.101562-108.136719-91.015625-135.644531 1.367188-4.648438 7.632813-6.144532 13.820313-3.308594 37.394531 17.117187 153.03125 76.90625 89.402343 136.175781-2.78125 2.589844-7.265624 3.605469-12.207031 2.777344zm0 0" fill="#eacf32"/><path d="m32.710938 127.800781c-2.746094-1.320312-5.269532-2.5-7.511719-3.527343-6.1875-2.832032-12.453125-1.335938-13.820313 3.308593-8.085937 27.511719-24.609375 116.269531 91.015625 135.644531 4.941407.828126 9.425781-.183593 12.207031-2.777343 2.65625-2.472657 4.992188-4.949219 7.042969-7.421875-99.773437-18.863282-96.410156-91.273438-88.933593-125.226563zm0 0" fill="#ccc033"/><path d="m112.183594 247.828125c-1.714844 0-3.417969-.730469-4.605469-2.152344l-30.398437-36.359375c-2.125-2.542968-1.785157-6.328125.753906-8.453125 2.542968-2.125 6.328125-1.789062 8.453125.757813l30.398437 36.359375c2.125 2.542969 1.789063 6.324219-.753906 8.453125-1.125.9375-2.488281 1.394531-3.847656 1.394531zm0 0" fill="#fcda4f"/><path d="m289.878906 193.902344h10.671875v105.585937h-10.671875zm0 0" fill="#ccc033"/><path d="m289.878906 193.902344h6.785156v105.585937h-6.785156zm0 0" fill="#99af17"/><path d="m300.46875 227.945312c58.8125-5.300781 53.914062-50.511718 50.90625-64.640624-.507812-2.382813-3.597656-3.375-6.8125-2.191407-19.4375 7.164063-79.804688 32.765625-50.121094 64.96875 1.300782 1.410157 3.511719 2.089844 6.027344 1.863281zm0 0" fill="#ccc033"/><path d="m352.074219 167.078125c-.226563-1.417969-.46875-2.6875-.695313-3.773437-.511718-2.382813-3.601562-3.375-6.816406-2.191407-8.828125 3.253907-26.101562 10.316407-39.546875 20.070313-.246094.175781-.488281.351562-.726563.53125-.03125.023437-.0625.046875-.097656.070312-.210937.15625-.417968.3125-.625.472656-.046875.03125-.089844.066407-.136718.101563-.191407.148437-.382813.292969-.578126.441406-.050781.042969-.105468.085938-.160156.125-.183594.140625-.363281.285157-.546875.429688-.054687.042969-.113281.089843-.164062.132812-.183594.144531-.363281.289063-.542969.433594-.050781.042969-.105469.085937-.15625.128906-.183594.148438-.363281.296875-.546875.445313-.046875.039062-.09375.078125-.140625.117187-.1875.160157-.378906.320313-.566406.480469-.035156.027344-.074219.058594-.109375.089844-.214844.1875-.429688.371094-.644531.558594-.003907.003906-.007813.007812-.011719.011718-.671875.589844-1.324219 1.183594-1.957031 1.789063-.027344.023437-.054688.050781-.078126.074219-.175781.171874-.355468.339843-.53125.515624-.046874.042969-.089843.089844-.136718.132813-.15625.15625-.308594.308594-.464844.460937-.054688.054688-.105469.109376-.160156.164063-.140625.144531-.28125.292969-.421875.4375-.058594.058594-.113281.121094-.171875.179687-.136719.140626-.269532.285157-.402344.429688-.058594.058594-.117188.125-.175781.1875-.128907.140625-.257813.285156-.386719.429688-.054688.0625-.113281.125-.164062.183593-.132813.148438-.261719.296875-.386719.445313-.054688.058594-.105469.117187-.15625.175781-.132813.15625-.261719.3125-.390625.464844-.042969.054687-.085938.105469-.128906.15625-.148438.179687-.296876.363281-.441407.542969-.023437.027343-.042969.054687-.0625.082031-.339843.425781-.667969.859375-.984375 1.292969-.003906.007812-.011718.011718-.015625.023437-.148437.203125-.292969.40625-.4375.613281-.035156.050782-.066406.101563-.105469.152344-.109374.160156-.222656.324219-.332031.488281-.042969.066407-.085937.132813-.125.195313-.097656.152344-.195312.300781-.292969.449218-.042968.074219-.089843.148438-.132812.222657-.089844.144531-.179688.285156-.265625.429687-.046875.078125-.09375.15625-.136719.234375-.082031.140625-.164062.28125-.246094.425781-.046874.078126-.089843.160157-.132812.238282-.078125.144531-.15625.28125-.230469.425781-.042969.078125-.085937.160156-.125.238281-.078125.148438-.148437.289063-.222656.4375-.039063.074219-.078125.152344-.113281.230469-.074219.152344-.148438.304687-.21875.457031-.03125.070313-.066406.140625-.097656.210938-.078126.171875-.152344.34375-.226563.515625-.023437.050781-.046875.101562-.066406.15625-.191407.453125-.371094.914062-.53125 1.371093-.015625.046876-.03125.089844-.042969.132813-.066406.183594-.128906.367187-.183594.550781-.023437.074219-.046875.144532-.066406.214844-.050781.160156-.097656.316406-.140625.472656-.023437.085938-.046875.167969-.070313.25-.039062.148438-.078124.292969-.113281.441406-.019531.089844-.042969.179688-.0625.269532-.035156.140625-.066406.285156-.097656.425781-.019531.09375-.039063.1875-.058594.28125-.027343.140625-.050781.277344-.078125.421875-.015625.09375-.035156.1875-.046875.285156-.023437.140625-.046875.28125-.066406.421875-.011719.09375-.023437.191407-.039063.285157-.019531.144531-.035156.285156-.050781.429687-.007812.09375-.019531.1875-.027343.277344-.015626.152343-.023438.304687-.035157.453125-.003906.085937-.011719.175781-.015625.261718-.011718.167969-.015625.335938-.019531.503907-.003906.070312-.007813.140625-.007813.210937-.011718.480469-.003906.960938.023438 1.449219.003906.066406.011719.136719.015625.199219.011719.175781.023437.351562.039063.523437.007812.089844.015624.179688.027343.269531.015625.152344.03125.308594.050781.460938.011719.097656.027344.195312.042969.292969.019531.148437.039063.292969.066407.4375.015624.101562.035156.207031.050781.308593.027343.144532.054687.285157.082031.429688.023438.105469.046875.210938.066406.316406.035156.140625.066406.285156.097656.425782.027344.105468.054688.210937.078126.316406.039062.144531.078124.289062.117187.433594.03125.101562.058594.207031.089844.316406.042969.144531.089843.289062.136719.4375.035156.101562.066406.207031.101562.3125.046875.152344.105469.300781.160156.453125.035156.097656.066406.199219.105469.296875.0625.167968.128906.335937.195313.507812.035156.082032.066406.164063.097656.246094.101562.242188.207031.488281.320312.734375.003906.007813.003906.015625.007813.023437.117187.25.234375.503907.363281.757813.039062.082031.082031.164063.121094.246094.085937.171875.175781.34375.265625.515625.054687.101562.109375.199218.164062.300781.085938.15625.171875.308594.257813.46875.0625.105469.125.210937.1875.320313.089844.148437.175781.300781.269531.449218.066406.109375.136719.222656.207031.332032.089844.148437.1875.292968.28125.441406.074219.113281.148438.226562.222656.335937.101563.148438.199219.292969.304688.441407.078125.113281.15625.226562.234375.339843.105469.148438.214844.296875.324219.445313.082031.113281.164062.222656.25.335937.113281.148438.230468.300781.347656.453125.085938.109375.171875.21875.257812.328125.125.160157.253907.316407.386719.476563.082031.101562.167969.203125.253907.308594.144531.175781.296874.351562.449218.527343.074219.085938.148438.175781.226563.261719.230469.261719.464843.523438.707031.789062.117188.125.242188.242188.371094.355469.058594.046875.121094.097657.183594.144531.066406.054688.136718.105469.207031.15625.082031.058594.167969.121094.257812.175782.039063.023437.078125.046875.121094.070312.273437.164063.558594.3125.867187.4375 1.335938.132813 2.695313.253906 4.085938.351563.625.042969 1.226562.027343 1.808594-.019531.191406-.019532.386718-.039063.574218-.058594 1.980469-.265625 3.65625-1.054688 4.75-2.289063 12.453126-14.082031 11-26.855469 2.960938-37.8125 13.441406-9.746093 30.703125-16.804687 39.53125-20.058593.652344-.230469 1.296875-.375 1.917969-.445313zm0 0" fill="#99af17"/><path d="m290.019531 229.691406c-69.375-11.628906-59.460937-64.882812-54.609375-81.390625.820313-2.785156 4.582032-3.683593 8.292969-1.984375 22.4375 10.269532 91.816406 46.144532 53.640625 81.707032-1.667969 1.554687-4.359375 2.164062-7.324219 1.667968zm0 0" fill="#eacf32"/><path d="m248.210938 148.433594c-1.648438-.792969-3.164063-1.5-4.507813-2.117188-3.710937-1.699218-7.472656-.800781-8.289063 1.988282-4.851562 16.503906-14.765624 69.761718 54.605469 81.386718 2.96875.5 5.65625-.113281 7.328125-1.667968 1.59375-1.484376 2.996094-2.96875 4.226563-4.453126-59.871094-11.316406-57.851563-54.765624-53.363281-75.136718zm0 0" fill="#ccc033"/><path d="m295.894531 222.851562c-1.714843 0-3.417969-.734374-4.605469-2.152343l-18.238281-21.816407c-2.125-2.542968-1.789062-6.328124.753907-8.453124 2.542968-2.121094 6.328124-1.789063 8.453124.757812l18.238282 21.816406c2.125 2.539063 1.785156 6.324219-.753906 8.449219-1.125.9375-2.488282 1.398437-3.847657 1.398437zm0 0" fill="#fcda4f"/><path d="m351.445312 261.300781-17.894531-28.992187-17.898437 28.992187h10.351562v39.414063h15.089844v-39.414063zm0 0" fill="#ff4b34"/><path d="m200.296875 0h-60c-7.457031 0-12.289063 7.867188-8.917969 14.519531l12.644532 24.960938h60l-12.644532-24.960938c-3.375-6.652343 1.460938-14.519531 8.917969-14.519531zm0 0" fill="#bf6c0d"/><path d="m306.691406 435.394531c0-10.378906-7.355468-19.199219-17.613281-22.453125.996094-3.082031 1.539063-6.371094 1.539063-9.785156 0-15.433594-10.980469-28.296875-25.558594-31.210938 1.378906-3.570312 2.144531-7.441406 2.144531-11.5 0-17.582031-14.25-31.835937-31.835937-31.835937-1.550782 0-3.082032.117187-4.574219.332031-1.972657-15.6875-15.351563-27.828125-31.574219-27.828125-12.878906 0-23.964844 7.652344-28.976562 18.65625-5.015626-11.003906-16.097657-18.65625-28.976563-18.65625-13.0625 0-24.277344 7.867188-29.1875 19.117188-4.09375-1.917969-8.664063-2.996094-13.484375-2.996094-17.582031 0-31.835938 14.25-31.835938 31.835937 0 1.664063.128907 3.296876.375 4.894532-1.023437.890625-2.035156 1.796875-3.03125 2.71875-15.539062 2.105468-27.523437 15.417968-27.523437 31.535156 0 1.699219.136719 3.363281.390625 4.988281-1.046875 2.164063-2.019531 4.367188-2.933594 6.597657-.695312-.046876-1.394531-.078126-2.101562-.078126-17.582032 0-31.8359378 14.253907-31.8359378 31.835938 0 11.507812 6.1054688 21.589844 15.2578128 27.179688h259.902343c1.648438.292968 3.351563.453124 5.097657.453124 1.742187 0 3.445312-.15625 5.09375-.453124h.90625c.007812-.058594.015625-.121094.023437-.183594 11.640625-2.464844 20.3125-11.898438 20.3125-23.164063zm0 0" fill="#bf6c0d"/><g fill="#a56021"><path d="m15.359375 458.738281h29.976563c0-.015625 0-.027343 0-.039062 0-17.582031 14.253906-31.835938 31.835937-31.835938.707031 0 1.40625.03125 2.101563.074219.914062-2.230469 1.886718-4.429688 2.933593-6.59375-.257812-1.628906-.390625-3.292969-.390625-4.988281 0-16.121094 11.980469-29.433594 27.523438-31.539063.996094-.921875 2.003906-1.828125 3.03125-2.71875-.246094-1.59375-.375-3.230468-.375-4.894531 0-17.582031 14.253906-31.835937 31.835937-31.835937 4.824219 0 9.390625 1.078124 13.488281 2.996093 4.910157-11.25 16.125-19.117187 29.183594-19.117187 12.878906 0 23.964844 7.652344 28.976563 18.65625 4.253906-9.332032 12.878906-16.230469 23.257812-18.117188-1.105469-.117187-2.226562-.179687-3.359375-.179687-1.554687 0-3.082031.117187-4.578125.332031-1.972656-15.691406-15.351562-27.828125-31.574219-27.828125-12.878906 0-23.964843 7.652344-28.976562 18.65625-5.015625-11.003906-16.097656-18.65625-28.976562-18.65625-13.058594 0-24.277344 7.867187-29.1875 19.117187-4.09375-1.917968-8.664063-2.996093-13.484376-2.996093-17.582031 0-31.835937 14.25-31.835937 31.835937 0 1.664063.128906 3.296875.375 4.894532-1.027344.890624-2.039063 1.796874-3.03125 2.71875-15.542969 2.105468-27.527344 15.417968-27.527344 31.535156 0 1.699218.136719 3.363281.394531 4.988281-1.046874 2.164063-2.019531 4.367187-2.933593 6.597656-.695313-.046875-1.394531-.078125-2.105469-.078125-17.582031 0-31.835938 14.253906-31.835938 31.835938-.0039058 11.507812 6.109376 21.589844 15.257813 27.179687zm0 0"/><path d="m140.933594 411.597656c0 9.664063-7.832032 17.5-17.5 17.5-9.664063 0-17.5-7.835937-17.5-17.5 0-9.664062 7.835937-17.5 17.5-17.5 9.667968 0 17.5 7.835938 17.5 17.5zm0 0"/><path d="m173.933594 375.597656c0 9.664063-7.832032 17.5-17.5 17.5-9.664063 0-17.5-7.835937-17.5-17.5 0-9.664062 7.835937-17.5 17.5-17.5 9.667968 0 17.5 7.835938 17.5 17.5zm0 0"/></g></svg>