<svg height="512" viewBox="0 0 60 60" width="512" xmlns="http://www.w3.org/2000/svg"><g id="Page-1" fill="none" fill-rule="evenodd"><g id="030---Crate" fill-rule="nonzero" transform="translate(-1 -1)"><path id="Rectangle-path" d="m12 26h38v32h-38z" fill="#6d4122"/><rect id="Rectangle-path" fill="#a0522d" height="36" rx="1" width="10" x="2" y="24"/><rect id="Rectangle-path" fill="#a0522d" height="36" rx="1" width="10" x="50" y="24"/><path id="Shape" d="m59 24h-3c.5522847 0 1 .4477153 1 1v34c0 .5522847-.4477153 1-1 1h3c.5522847 0 1-.4477153 1-1v-34c0-.5522847-.4477153-1-1-1z" fill="#783e22"/><path id="Rectangle-path" d="m12 26h38v8h-38z" fill="#91562d"/><path id="Rectangle-path" d="m12 50h38v8h-38z" fill="#91562d"/><path id="Rectangle-path" d="m12 38h38v8h-38z" fill="#91562d"/><path id="Shape" d="m16.86 26h-4.86v-1c0-.5522847-.4477153-1-1-1h-3.92c-2.19189735-3.2968257-3.87728539-6.9035561-5-10.7-.19771504-.685988-.01477985-1.425351.48-1.94 1.55925296-1.3339545 3.37723294-2.33146033 5.34-2.93 1.97585092-.59178055 4.0533134-.76547004 6.1-.51.7070202.14626656 1.280324.66223997 1.5 1.35l.06.18c1.6336142 5.3561272 2.0772927 11.0044964 1.3 16.55z" fill="#ff9801"/><path id="Shape" d="m25.88 22c-.0658033 1.3344091-.0256776 2.6719353.12 4h-9.14c.7772927-5.5455036.3336142-11.1938728-1.3-16.55.1388471-.08802852.2862689-.16173947.44-.22 1.9862079-.47739879 4.0501521-.53529822 6.06-.17h.05c2.0248448.37539965 3.9491447 1.1689605 5.65 2.33.2259223.1851985.4042247.4217922.52.69-1.2250221 2.5109788-1.9936594 5.2198328-2.27 8-.08.63-.13 1.26-.15 1.88z" fill="#f44335"/><path id="Shape" d="m46.89 22.49c-.1364122 1.1799846-.3367062 2.3517046-.6 3.51h-9.54c-.0496609-1.5561475.0171925-3.1138297.2-4.66.59-5 2.19-9.24 4-11.19.2503547-.2764212.5361657-.51851998.85-.72.4691975-.33672128 1.0455767-.48971083 1.62-.43.7910568.14696195 1.4780732.63298952 1.88 1.33l.21.34c1.36 2.33 1.96 6.8 1.38 11.82z" fill="#a4c400"/><path id="Shape" d="m41 10.15c-1.86 1.95-3.46 6.17-4 11.19-.1828075 1.5461703-.2496609 3.1038525-.2 4.66h-5.89c-.1584458-1.7815282-.1282785-3.5748092.09-5.35.61-5.22 2.56-9.54 4.84-11.34.7187534-.63582378 1.6626809-.95647091 2.62-.89 1.0549332.187327 1.979356.81695359 2.54 1.73z" fill="#60a917"/><path id="Shape" d="m35.83 9.31c-2.28 1.8-4.23 6.12-4.84 11.34-.2149488 1.7755432-.2417642 3.5688237-.08 5.35h-4.91c-.1423419-1.3283295-.1791238-2.6658552-.11-4 0-.62.07-1.25.15-1.88.2763406-2.7801672 1.0449779-5.4890212 2.27-8 1.44-2.79 3.32-4.46 5.19-4.24.936816.14544075 1.7761488.66056773 2.33 1.43z" fill="#a4c400"/><path id="Shape" d="m57.81 23.76v.24h-5c0-.27.08-.54.11-.82.6-5.21-.31-9.87-2.12-12.14.7187534-.6358238 1.6626809-.9564709 2.62-.89 3.22.39 5.22 6.48 4.39 13.61z" fill="#a4c400"/><path id="Shape" d="m53.35 10.15c-.6429723-.0575327-1.2882278.081982-1.85.4 2.59 1.51 4 7 3.31 13.21v.24h3v-.24c.83-7.13-1.17-13.22-4.46-13.61z" fill="#90ac00"/><path id="Shape" d="m52.85 23.18c0 .28-.07.55-.11.82h-1.74c-.5522847 0-1 .4477153-1 1v1h-3.71c.2632938-1.1582954.4635878-2.3300154.6-3.51.58-5 0-9.49-1.38-11.82.7560223-.76453604 1.8072255-1.16238726 2.88-1.09.9388436.14043903 1.7819448.6520646 2.34 1.42 1.81 2.31 2.72 7 2.12 12.18z" fill="#60a917"/><path id="Shape" d="m46.53 4.85c-1.1338469 1.58532735-1.577554 3.56216843-1.23 5.48-.4019268-.69701048-1.0889432-1.18303805-1.88-1.33-.5577682-.0474003-1.1142253.10500515-1.57.43-.6204353-2.48419753.0482669-5.1139253 1.78-7 .3523224-.39750122.9539376-.45019744 1.37-.12l1.35 1.17c.3863467.35151905.4624319.93061223.18 1.37z" fill="#60a917"/><g fill="#000"><path id="Shape" d="m59 23h-.12c.64-7.39-1.66-13.4-5.42-13.84-.8999287-.08807055-1.8043491.11524875-2.58.58-1.2353948-1.2576236-3.1484687-1.55819147-4.71-.74.0346602-1.29389036.4484381-2.54913262 1.19-3.61.5490508-.85486344.3965288-1.98183156-.36-2.66l-1.33-1.18c-.8094976-.69865459-2.0253535-.63698074-2.76.14-1.6983619 1.78913093-2.515211 4.2396781-2.23 6.69-.5949384-.53156637-1.3314163-.87896164-2.12-1-.8976269-.0717613-1.7946727.14549197-2.56.62-.6419928-.63359635-1.475008-1.03780206-2.37-1.15-1.94-.23-3.89 1-5.49 3.54-1.2659831-.8546153-2.6649752-1.49328562-4.14-1.89.9245083-1.00610086 2.2447287-1.55466887 3.61-1.5.5522847.09664982 1.0783502-.27271526 1.175-.825.0966498-.55228475-.2727153-1.07835016-.825-1.175-1.6444055-.14580914-3.280713.35656598-4.56 1.4.1550781-1.50936044.1550781-3.03063956 0-4.54-.0773199-.55228475-.5877153-.93731986-1.14-.86s-.9373199.58771525-.86 1.14c.1068184 1.12079398.1068184 2.24920602 0 3.37-.8196503-1.11324072-1.9942096-1.91391629-3.33-2.27-.5522847-.10493409-1.0850659.25771526-1.19.81-.1049341.55228475.2577153 1.08506589.81 1.19 1.3082599.41407956 2.3708862 1.37811163 2.91 2.64-1.5195237-.15095803-3.0535522-.04959051-4.54.3-.4230988-.63352258-1.0755911-1.07807774-1.82-1.24-1.6302571-.26614326-3.2961102-.22203717-4.91.13.36128177-1.32960739 1.2959641-2.42923364 2.55-3 .5110565-.17529469.7904645-.72482677.6310049-1.24104339s-.7001187-.81242957-1.2210049-.66895661c-1.53826769.60656683-2.77465315 1.79622843-3.44 3.31-.55236203-1.4001741-1.24594336-2.74042786-2.07-4-.1451462-.22364908-.37359441-.38007537-.63459474-.43452867-.26100032-.05445331-.5329392-.00242433-.75540526.14452867-.21844761.15307413-.36668572.38707839-.41175539.64998479s.01676485.53292311.17175539.75001521c.61747244.9478398 1.14318365 1.95238352 1.57 3-1.23909136-.61253296-2.64969519-.78533193-4-.49-.53139681.13739173-.85273675.67742136-.72 1.21.06913286.26757908.24591957.49461746.48839473.62722106s.52901652.15894776.79160527.07277894c1.3351807-.20500726 2.69341356.18201608 3.72 1.06-1.5312703.60306226-2.93562403 1.4884157-4.14 2.61-.74216978.7719735-1.01657255 1.8810181-.72 2.91.97082871 3.3027249 2.35867929 6.4682339 4.13 9.42h-2.27c-1.1045695 0-2 .8954305-2 2v34c0 1.1045695.8954305 2 2 2h8c1.1045695 0 2-.8954305 2-2h36c0 1.1045695.8954305 2 2 2h8c1.1045695 0 2-.8954305 2-2v-34c0-1.1045695-.8954305-2-2-2zm-5.77-11.86c2.28.27 4.27 5.17 3.65 11.86h-3c.49-4.67-.17-9-1.73-11.65.3343033-.1666197.7076189-.2392089 1.08-.21zm-4.95-.57c.6940149.1239089 1.31165.5153172 1.72 1.09 1.7 2.14 2.45 6.58 1.91 11.34h-.91c-1.1045695 0-2 .8954305-2 2h-1.49c.15-.81.28-1.61.37-2.4.53-4.6.12-8.92-1.11-11.6.4365539-.3175786.9716327-.4699521 1.51-.43zm.72 16.43v6h-36v-6zm-7.27-16.17c.1977041-.2153507.4229855-.4036456.67-.56.261062-.1963701.5840841-.29221185.91-.27.48855.1216446.9048844.4402309 1.15.88l.19.3c1.29 2.21 1.78 6.61 1.25 11.21-.1.86-.25 1.73-.43 2.62h-7.72c-.0057186-1.1826947.057723-2.3647119.19-3.54.55-4.62 2.06-8.79 3.79-10.64zm-28.73 28.17h36v6h-36zm36-2h-36v-2h36zm-36 10h36v2h-36zm31.35-43.94 1.35 1.23c-.795109 1.15710766-1.3025049 2.48730765-1.48 3.88-.2182822-.08608157-.4468891-.14323329-.68-.17-.2878245-.05023572-.5821755-.05023572-.87 0-.1829604-1.81238831.4300459-3.61491864 1.68-4.94zm-6 6.35c.5277723.08951948 1.0102121.35362887 1.37.75-1.79 2.35-3.2 6.46-3.74 11.06-.1403437 1.25502-.2071245 2.5171774-.2 3.78h-3.94c-.0648763-1.4119941-.0113559-2.8269414.16-4.23.56-4.78 2.31-9 4.47-10.67.5050141-.46585035 1.1733485-.71378087 1.86-.69zm-4.95-.57c.3656587.05811582.710113.20967569 1 .44-2.18 2.3-3.83 6.47-4.39 11.25-.1795253 1.4827873-.2363849 2.9778604-.17 4.47h-2.92c-.0562242-.9992097-.0562242-2.0007903 0-3 0-.59.07-1.19.14-1.79.2678315-2.6513796 1.0024791-5.2344954 2.17-7.63 1.24-2.51 2.77-3.89 4.15-3.74zm-12.46 1.07-.15.94c-.0496801.2613069.0067906.5316395.1569222.751207.1501317.2195675.3815524.3702762.6430778.418793h.18c.4890037.0079763.9120327-.3389075 1-.82 0-.05.08-.4.16-.93 1.5202064.346787 2.9574406.9889554 4.23 1.89-1.1425535 2.4570468-1.8723336 5.0856066-2.16 7.78-.08.66-.14 1.32-.16 2-.05546 1.0192461-.05546 2.0407539 0 3.06h-6.84c.5396871-5.0156797.1257438-10.0881815-1.22-14.95 1.3705934-.26587375 2.7746326-.31312508 4.16-.14zm-17.88 3.09c-.09858763-.3507519-.01192063-.727565.23-1 1.16679881-1.0350137 2.525987-1.8301388 4-2.34.18.54.28.89.29.9.13205152.4372829.54363007.7295036 1 .71.09276179.0146074.18723821.0146074.28 0 .51765798-.1839144.79002676-.7509772.61-1.27 0 0-.12-.39-.28-.9 1.5125555-.38355183 3.0858942-.46510718 4.63-.24.347098.08043311.625183.33947114.73.68v.17c1.5318998 4.9422734 2.0255633 10.1478691 1.45 15.29h-3c0-1.1045695-.8954305-2-2-2h-3.37c-1.99124714-3.0989831-3.53009066-6.4662555-4.57-10zm7.94 46h-8v-34h8zm2-2v-6h36v6zm46 2h-8v-34h8z"/><path id="Shape" d="m11.87 14.54c.3621282-.0857553.6466822-.3655069.7385884-.7261231.0919061-.3606162-.02404-.7424386-.3009497-.9910584-.2769098-.2486197-.6689728-.3229064-1.0176387-.1928185l-3.83 1.15c-.51613864.1590171-.81275797.6991299-.67 1.22.13205152.4372829.54363007.7295036 1 .71.07050936.0007559.14090091-.0059481.21-.02z"/><path id="Shape" d="m13.69 17.13c-.1589585-.5261634-.7127756-.8254033-1.24-.67l-3.83 1.15c-.51123836.1798277-.78619089.7341674-.62 1.25.13205152.4372829.54363007.7295036 1 .71.09638625.0104128.19361375.0104128.29 0l3.71-1.2c.256452-.0721334.4735209-.2436137.6030572-.4764036.1295364-.23279.1608312-.5076446.0869428-.7635964z"/><circle id="Oval" cx="7" cy="30" r="1"/><circle id="Oval" cx="7" cy="42" r="1"/><circle id="Oval" cx="7" cy="54" r="1"/><circle id="Oval" cx="55" cy="30" r="1"/><circle id="Oval" cx="55" cy="42" r="1"/><circle id="Oval" cx="55" cy="54" r="1"/></g></g></g></svg>