<svg id="Capa_1" enable-background="new 0 0 64 64" height="512" viewBox="0 0 64 64" width="512" xmlns="http://www.w3.org/2000/svg"><path d="m19.831 20.072c-2.26 3.828-7.631 4.928-7.631 4.928s-1.711-5.1.549-8.928 7.634-4.928 7.634-4.928 1.707 5.101-.552 8.928z" fill="#64c37d"/><path d="m11.648 16.072c2.26 3.828.552 8.928.552 8.928s-5.374-1.1-7.634-4.928-.548-8.928-.548-8.928 5.371 1.101 7.63 4.928z" fill="#64c37d"/><path d="m16.288 17c0 4.418-4.092 8-4.092 8s-4.091-3.582-4.091-8 4.095-8 4.095-8 4.088 3.582 4.088 8z" fill="#c2fb3b"/><path d="m14.21 24.27c3.993 1.016 6.788 4.61 6.79 8.73-.183 3.051-.716 6.071-1.59 9h-14.82c-.874-2.929-1.407-5.949-1.59-9 .002-4.12 2.797-7.714 6.79-8.73.424-.104.855-.178 1.29-.22.3-.03.61-.05.92-.05s.62.02.92.05c.435.042.866.116 1.29.22z" fill="#ff6243"/><path d="m33 28c2.761 0 5 2.239 5 5 0 4-2.45 7.94-4.84 10.62-.886.976-2.395 1.05-3.372.164-.03-.027-.06-.055-.088-.084-.941-.933-2.459-.933-3.4 0-.451.45-1.063.702-1.7.7-.671.003-1.311-.281-1.76-.78-2.39-2.68-4.84-6.62-4.84-10.62 0-2.761 2.239-5 5-5 2.76 0 5 1.24 5 4 0-2.76 2.24-4 5-4z" fill="#d80027"/><path d="m28 28h-2c-2.761 0-5-2.239-5-5h2c2.761 0 5 2.239 5 5z" fill="#64c37d"/><path d="m19.14 38h1.22c-.1.54-.22 1.1-.36 1.68-.31-.54-.6-1.1-.86-1.68z" fill="#78b9eb"/><path d="m3 38h58v8h-58z" fill="#b39a7c"/><path d="m3 54h58v8h-58z" fill="#b39a7c"/><path d="m3 46h58v8h-58z" fill="#957856"/><path d="m61 20c0 7.732-14 22-14 22s-14-14.268-14-22 6.268-14 14-14 14 6.268 14 14z" fill="#ff9811"/><circle cx="47" cy="20" fill="#ffda44" r="10"/><path d="m61 37h-8.2c4.11-4.96 9.2-12.09 9.2-17 0-8.284-6.716-15-15-15s-15 6.716-15 15c.199 2.531.99 4.981 2.31 7.15-.429-.101-.869-.151-1.31-.15-1.413-.049-2.807.331-4 1.09v-1.09c0-1.591.942-3.032 2.4-3.67l-.8-1.83c-1.261.552-2.293 1.524-2.92 2.75-1.137-1.422-2.859-2.25-4.68-2.25h-2c-.552 0-1 .448-1 1 0 1.549.602 3.037 1.68 4.15-.445.103-.877.254-1.29.45-.923-1.456-2.213-2.642-3.74-3.44 1.51-.867 2.776-2.102 3.68-3.59 2.4-4.16.69-9.52.62-9.74-.158-.488-.659-.777-1.16-.67-1.503.36-2.945.94-4.28 1.72-.765-1.341-1.722-2.564-2.84-3.63-.386-.33-.954-.33-1.34 0-1.118 1.066-2.075 2.289-2.84 3.63-1.335-.78-2.777-1.36-4.28-1.72-.501-.104-1 .184-1.16.67-.07.22-1.78 5.58.62 9.74.904 1.488 2.17 2.723 3.68 3.59-3.287 1.724-5.348 5.128-5.35 8.84.042 1.403.195 2.801.46 4.18-.282.178-.456.486-.46.82v24c0 .552.448 1 1 1h58c.552 0 1-.448 1-1v-24c0-.552-.448-1-1-1zm-27-17c0-7.18 5.82-13 13-13s13 5.82 13 13c0 4.72-5.76 12.27-9.82 17l-.18.21c-1.26 1.46-2.33 2.63-3 3.34-.67-.71-1.74-1.88-3-3.34l-.18-.21c-4.06-4.73-9.82-12.28-9.82-17zm7.2 17h-2.89c.312-.924.52-1.88.62-2.85.77 1.01 1.53 1.96 2.27 2.85zm-18.2-13c1.823.001 3.414 1.235 3.87 3h-.87c-1.823-.001-3.414-1.235-3.87-3zm0 5c1.2 0 4 .29 4 3 0 .552.448 1 1 1s1-.448 1-1c0-2.71 2.8-3 4-3 2.209 0 4 1.791 4 4-.028 1.373-.309 2.729-.83 4h-16.34c-.521-1.271-.802-2.627-.83-4 0-2.209 1.791-4 4-4zm-6-12c-.012-1.122-.226-2.233-.63-3.28.918-.558 1.898-1.008 2.92-1.34.33 1.54.74 4.71-.7 7.19-.831 1.343-2.019 2.43-3.43 3.14 1.139-1.692 1.777-3.671 1.84-5.71zm-7.22-3.26v-.01c.57-1.205 1.318-2.318 2.22-3.3.905.984 1.653 2.1 2.22 3.31.496 1.016.763 2.129.78 3.26-.149 2.235-1.039 4.357-2.53 6.03-.16 0-.31-.03-.47-.03s-.32.02-.47.02c-1.493-1.667-2.384-3.787-2.53-6.02.017-1.131.284-2.244.78-3.26zm-4.37 5.83c-1.43-2.47-1.02-5.65-.69-7.19 1.016.331 1.992.773 2.91 1.32-.408 1.053-.622 2.171-.63 3.3.063 2.039.701 4.018 1.84 5.71-1.409-.713-2.596-1.799-3.43-3.14zm6.59 5.43c2.754-.006 5.313 1.417 6.76 3.76-1.128 1.123-1.761 2.649-1.76 4.24.012 1.362.245 2.713.69 4h-13.23c-.261-1.319-.415-2.656-.46-4 .006-4.416 3.584-7.994 8-8zm48 36h-56v-6h56zm0-8h-56v-6h56zm0-8h-56v-6h38.9c1.83 2.1 3.21 3.52 3.39 3.7.381.392 1.008.401 1.4.02.007-.007.013-.013.02-.02.18-.18 1.56-1.6 3.39-3.7h8.9z"/><path d="m56 41h2v2h-2z"/><path d="m56 49h2v2h-2z"/><path d="m56 57h2v2h-2z"/><path d="m6 41h2v2h-2z"/><path d="m6 49h2v2h-2z"/><path d="m6 57h2v2h-2z"/><path d="m47 9c-6.075 0-11 4.925-11 11s4.925 11 11 11 11-4.925 11-11c-.004-6.074-4.926-10.996-11-11zm0 20c-4.971 0-9-4.029-9-9s4.029-9 9-9 9 4.029 9 9c-.008 4.967-4.033 8.992-9 9z"/><path d="m52 17v-2c0-.552-.448-1-1-1h-3v-1h-2v1h-3c-.552 0-1 .448-1 1v5c0 .552.448 1 1 1h3v3h-2v-1h-2v2c0 .552.448 1 1 1h3v1h2v-1h3c.552 0 1-.448 1-1v-5c0-.552-.448-1-1-1h-3v-3h2v1zm-6 2h-2v-3h2zm4 2v3h-2v-3z"/></svg>