<svg height="512" viewBox="0 0 50 60" width="512" xmlns="http://www.w3.org/2000/svg"><g id="Page-1" fill="none" fill-rule="evenodd"><g id="070---Pesticide"><path id="Shape" d="m21 1v3c0 1.65685425-1.3431458 3-3 3h-6c-1.6568542 0-3-1.34314575-3-3v-3z" fill="#7f8e94" fill-rule="nonzero"/><path id="Shape" d="m21 13v4h-12v-4c.0032948-1.1032019.89679813-1.9967052 2-2h8c1.1032019.0032948 1.9967052.8967981 2 2z" fill="#60a917" fill-rule="nonzero"/><path id="Shape" d="m29 53v3c0 1.6568542-1.3431458 3-3 3h-22c-1.65685425 0-3-1.3431458-3-3v-3z" fill="#008a00" fill-rule="nonzero"/><path id="Shape" d="m29 26.66.0000012 26.34h-28.00000244l.00000124-26.34c-.00083446-1.0611852.42004572-2.0792116 1.17-2.83l6.83-6.83h12l6.83 6.83c.7499543.7507884 1.1708345 1.7688148 1.17 2.83z" fill="#a4c400" fill-rule="nonzero"/><path id="Shape" d="m29 26.66.0000012 26.34h-3.0000012v-26.34c.0008345-1.0611852-.4200457-2.0792116-1.17-2.83l-6.83-6.83h3l6.83 6.83c.7499543.7507884 1.1708345 1.7688148 1.17 2.83z" fill="#90ac00" fill-rule="nonzero"/><path id="Shape" d="m29 53v3c0 1.6568542-1.3431458 3-3 3h-3c1.6568542 0 3-1.3431458 3-3v-3z" fill="#007900" fill-rule="nonzero"/><circle id="Oval" cx="15" cy="38" fill="#f5f5f5" fill-rule="nonzero" r="10"/><path id="Shape" d="m15 28c-.5024272.0039922-1.0038421.0457768-1.5.125 4.8867805.7347638 8.5012202 4.9332896 8.5012202 9.875s-3.6144397 9.1402362-8.5012202 9.875c3.710451.5677523 7.4261819-.9912669 9.6206899-4.0365787s2.4977618-7.0634251.7851783-10.4036118c-1.7125836-3.3401866-5.152234-5.4392346-8.9058682-5.4348095z" fill="#cfd8dc" fill-rule="nonzero"/><path id="Shape" d="m22.07 30.93-14.14 14.14" stroke="#000" stroke-linejoin="round" stroke-width="2"/><g fill-rule="nonzero"><path id="Shape" d="m17.4 40.4c-.993.992-2.876.721-4.2-.6s-1.6-3.207-.6-4.2 2.876-.73 4.2.6 1.593 3.2.6 4.2z" fill="#ff9801"/><path id="Rectangle-path" d="m13 7h4v4h-4z" fill="#37474f"/><path id="Shape" d="m39 39v7c-.0032948 1.1032019-.8967981 1.9967052-2 2h-8v-11h8c1.1032019.0032948 1.9967052.8967981 2 2z" fill="#607d8b"/><path id="Shape" d="m37 37h-3c1.1032019.0032948 1.9967052.8967981 2 2v7c-.0032948 1.1032019-.8967981 1.9967052-2 2h3c1.1032019-.0032948 1.9967052-.8967981 2-2v-7c-.0032948-1.1032019-.8967981-1.9967052-2-2z" fill="#37474f"/><path id="Shape" d="m37 32v5h-4v-4c0-.5522847-.4477153-1-1-1h-3v-4h4c2.209139 0 4 1.790861 4 4z" fill="#ffdc00"/><path id="Shape" d="m48 25v26.5c0 4.1421356-3.3578644 7.5-7.5 7.5s-7.5-3.3578644-7.5-7.5v-3.5h4v3.5c0 1.9329966 1.5670034 3.5 3.5 3.5 1.9291303-.0093024 3.4906976-1.5708697 3.5-3.5v-26.5z" fill="#ffdc00"/><rect id="Rectangle-path" fill="#607d8b" height="8" rx="1" width="6" x="43" y="17"/><path id="Shape" d="m49 7v5.14c-.0001421.5731268-.07067 1.144067-.21 1.7l-.79 3.16h-4l-.79-3.16c-.13933-.555933-.2098579-1.1268732-.21-1.7v-5.14c0-.55228475.4477153-1 1-1h4c.5522847 0 1 .44771525 1 1z" fill="#cfd8dc"/><path id="Shape" d="m11 10c-1.65685425 0-3 1.3431458-3 3v3.586l-6.535 6.535c-.9408993.9357628-1.4684137 2.2089989-1.465 3.536v29.343c0 2.209139 1.790861 4 4 4h22c2.209139 0 4-1.790861 4-4v-7h2v2.5c0 4.6944204 3.8055796 8.5 8.5 8.5s8.5-3.8055796 8.5-8.5v-25.778c.6167513-.3544126.997855-1.0106732 1-1.722v-6c-.0026508-.6344632-.306188-1.2300345-.818-1.605l.579-2.317c.1588325-.6340957.2391013-1.2853142.239-1.939v-5.139c0-1.1045695-.8954305-2-2-2h-1v-4c0-.55228475-.4477153-1-1-1s-1 .44771525-1 1v4h-1c-1.1045695 0-2 .8954305-2 2v5.139c-.0001013.6536858.0801675 1.3049043.239 1.939l.579 2.317c-.511812.3749655-.8153492.9705368-.818 1.605v6c.002145.7113268.3832487 1.3675874 1 1.722v25.778c0 1.3807119-1.1192881 2.5-2.5 2.5s-2.5-1.1192881-2.5-2.5v-2.684c1.1943509-.4222546 1.9947486-1.5492146 2-2.816v-7c-.0052514-1.2667854-.8056491-2.3937454-2-2.816v-4.184c-.0033061-2.7600532-2.2399468-4.9966939-5-5h-3v-.343c.0034137-1.3270011-.5241007-2.6002372-1.465-3.536l-6.535-6.535v-3.586c0-1.6568542-1.3431458-3-3-3h-1v-2c2.209139 0 4-1.790861 4-4v-3c0-.55228475-.4477153-1-1-1h-12c-.55228475 0-1 .44771525-1 1v3c0 2.209139 1.790861 4 4 4v2zm21 26h-2v-3h2zm12-12v-6h4v6zm0-17h4v5.139c-.0004788.4904621-.0605865.9790467-.179 1.455l-.601 2.406h-2.44l-.6-2.406c-.1187505-.4759118-.1791941-.9644971-.18-1.455zm-3.5 49c2.4841391-.0027556 4.4972444-2.0158609 4.5-4.5v-25.5h2v25.5c0 3.5898509-2.9101491 6.5-6.5 6.5s-6.5-2.9101491-6.5-6.5v-2.5h2v2.5c.0027556 2.4841391 2.0158609 4.4972444 4.5 4.5zm-2.5-10c0 .5522847-.4477153 1-1 1h-7v-9h7c.5522847 0 1 .4477153 1 1zm-5-17c1.6568542 0 3 1.3431458 3 3v4h-2v-3c0-1.1045695-.8954305-2-2-2h-2v-2zm-5-2.343v25.343h-3c-.5522847 0-1 .4477153-1 1s.4477153 1 1 1h3v2c0 1.1045695-.8954305 2-2 2h-22c-1.1045695 0-2-.8954305-2-2v-2h19c.5522847 0 1-.4477153 1-1s-.4477153-1-1-1h-19v-25.343c-.00186541-.7962819.31460706-1.5602803.879-2.122l6.535-6.535h11.172l6.535 6.535c.5647706.5614666.8813114 1.3256299.879 2.122zm-8-13.657v3h-10v-3c0-.5522847.4477153-1 1-1h8c.5522847 0 1 .4477153 1 1zm-10-9v-2h10v2c0 1.1045695-.8954305 2-2 2h-6c-1.1045695 0-2-.8954305-2-2zm4 4h2v2h-2z" fill="#000"/><path id="Shape" d="m20 21h-10c-.55228475 0-1 .4477153-1 1s.44771525 1 1 1h10c.5522847 0 1-.4477153 1-1s-.4477153-1-1-1z" fill="#000"/><path id="Shape" d="m20 37h-1.433c-.5338008-1.1255305-1.4408461-2.0315158-2.567-2.564v-1.436c0-.5522847-.4477153-1-1-1s-1 .4477153-1 1v1.014c-.4377937.0178564-.8677227.1221949-1.265.307l-1.028-1.028c-.3923789-.3789722-1.0160848-.3735524-1.4018186.0121814-.38573377.3857338-.39115361 1.0094397-.0121814 1.4018186l1.034 1.034c-.1866096.3948225-.2929985.8227571-.313 1.259h-1.014c-.55228475 0-1 .4477153-1 1s.44771525 1 1 1h1.444c.2599999.5593995.6152919 1.0693281 1.05 1.507.4365394.434828.9463479.7892566 1.506 1.047v1.446c0 .5522847.4477153 1 1 1s1-.4477153 1-1v-1.022c.7873442-.0109051 1.5408868-.3216922 2.107-.869.5505945-.5659426.8661349-1.3195946.883-2.109h1.01c.5522847 0 1-.4477153 1-1s-.4477153-1-1-1zm-3.308 2.7c-.581.579-1.88.3-2.784-.6-.4623174-.4463058-.7726142-1.0266693-.887-1.659-.08169-.399316.0236554-.8140676.286-1.126.2312924-.2133373.5375558-.3265685.852-.315.736677.0439727 1.4281563.3698382 1.931.91.916.914 1.191 2.19.602 2.79z" fill="#000"/><path id="Shape" d="m15 27c-6.07513225 0-11 4.9248678-11 11s4.92486775 11 11 11c6.0751322 0 11-4.9248678 11-11-.0071635-6.0721626-4.9278374-10.9928365-11-11zm0 2c2.040832-.0007997 4.0206199.6960602 5.611 1.975l-12.636 12.636c-2.16333681-2.6989445-2.58615442-6.3997609-1.08732778-9.517107 1.49882665-3.1173461 4.65338148-5.0981542 8.11232778-5.093893zm0 18c-2.040832.0007997-4.0206199-.6960602-5.611-1.975l12.636-12.636c2.1633368 2.6989445 2.5861544 6.3997609 1.0873278 9.517107-1.4988267 3.1173461-4.6533815 5.0981542-8.1123278 5.093893z" fill="#f44335"/></g></g></g></svg>