<svg height="512" viewBox="0 0 57 60" width="512" xmlns="http://www.w3.org/2000/svg"><g id="Page-1" fill="none" fill-rule="evenodd"><g id="009---Pruning" fill-rule="nonzero" transform="translate(-1 -1)"><g id="Icons" transform="translate(2 1)"><path id="Shape" d="m33 29c-.0021964 2.1413952-1.1454958 4.119303-3 5.19-1.8564065 1.0717968-4.1435935 1.0717968-6 0-1.4203327-.8202335-2.4429687-2.1861573-2.83-3.78-.1130422-.4614753-.1701195-.9348811-.17-1.41.0021964-2.1413952 1.1454958-4.119303 3-5.19 1.8554549-1.0712489 4.1413332-1.0718357 5.9973379-.0015397s3.0004658 3.0490453 3.0026621 5.1915397z" fill="#9e9e9e"/><path id="Shape" d="m31.14 24.66c-1.1154107-1.0647792-2.5979575-1.6592303-4.14-1.66-.5059051.0014972-1.0096992.0653111-1.5.19 2.3560589.6112414 4.1093848 2.5853194 4.4382579 4.9970557s-.8318804 4.7831888-2.9382579 6.0029443c-.4696099.2736534-.9742258.4822279-1.5.62.4903008.1246889.9940949.1885028 1.5.19 1.0546709.0048895 2.0911128-.2749498 3-.81 1.6339353-.9458197 2.7274082-2.6055257 2.9516492-4.4801018s-.4469056-3.7453698-1.8116492-5.0498982z" fill="#707070"/><path id="Shape" d="m31 42v15c0 1.1045695-.8954305 2-2 2h-4c-1.1045695 0-2-.8954305-2-2v-15c.0007321-.7137984.3818319-1.373101 1-1.73.3012607-.1823643.6478931-.2759551 1-.27h4c.530433 0 1.0391408.2107137 1.4142136.5857864.3750727.3750728.5857864.8837806.5857864 1.4142136z" fill="#f44335"/><path id="Shape" d="m30 40.27c-.3038396-.1762535-.6487402-.2693767-1-.27h-3c1.1045695 0 2 .8954305 2 2v15c0 1.1045695-.8954305 2-2 2h3c1.1045695 0 2-.8954305 2-2v-15c-.0007321-.7137984-.3818319-1.373101-1-1.73z" fill="#c81e1e"/><path id="Shape" d="m30 34.19v6.08c-.3038396-.1762535-.6487402-.2693767-1-.27h-4c-.3521069-.0059551-.6987393.0876357-1 .27v-6.08c1.8564065 1.0717968 4.1435935 1.0717968 6 0z" fill="#607d8b"/><path id="Shape" d="m27 35v5h2c.3512598.0006233.6961604.0937465 1 .27v-6.08c-.9088872.5350502-1.9453291.8148895-3 .81z" fill="#37474f"/><path id="Shape" d="m32 18c-.0106762 2.2469869-.2995405 4.4840061-.86 6.66-1.9254926-1.8392631-4.8328419-2.189448-7.14-.86v-20.8c4.42 0 8 7.82 8 15z" fill="#7f8e94"/><path id="Shape" d="m24 3v1.25c2.93 2.48 5 8.29 5 13.75-.0130242 1.7423281-.1870983 3.4797213-.52 5.19.9981289.2535985 1.9141823.7598385 2.66 1.47.5604595-2.1759939.8493238-4.4130131.86-6.66 0-7.18-3.58-15-8-15z" fill="#545c60"/><path id="Shape" d="m54 42.27-2 3.46c-.5529293.9546113-1.7744087 1.281234-2.73.73l-13-7.5c-.6181681-.356899-.9992679-1.0162016-1-1.73-.0028004-.3517085.0905622-.6974958.27-1l2-3.46c.1752551-.3030253.4269747-.5547449.73-.73.6188022-.3572656 1.3811978-.3572656 2 0l13 7.5c.9546113.5529293 1.281234 1.7744087.73 2.73z" fill="#f44335"/><path id="Shape" d="m53.25 39.54-13-7.5c-.6188022-.3572656-1.3811978-.3572656-2 0-.1529976.0923682-.2940561.2031999-.42.33l12.41 7.17c.4635711.2605079.8043153.6949004.9469264 1.2071743.142611.512274.075347 1.0602512-.1869264 1.5228257l-2 3.46c-.0859797.1459215-.1901467.2803306-.31.4l.58.33c.9555913.551234 2.1770707.2246113 2.73-.73l2-3.46c.263086-.46136.3318651-1.0084161.1911713-1.5205416s-.4793058-.947261-.9411713-1.2094584z" fill="#c81e1e"/><path id="Shape" d="m38.26 32c-.3030253.1752551-.5547449.4269747-.73.73l-2 3.46c-.1794378.3025042-.2728004.6482915-.27 1l-5.26-3c1.8545042-1.070697 2.9978036-3.0486048 3-5.19z" fill="#607d8b"/><path id="Shape" d="m24 23.8c-1.8575974 1.0724838-3.0013752 3.055032-3 5.2-.0001195.4751189.0569578.9485247.17 1.41-2.1556387-.6009821-4.2282-1.4676285-6.17-2.58-1.2531215-.7322368-2.4378885-1.5756302-3.54-2.52-1.2309735-1.0452801-2.34725465-2.2185486-3.33-3.5-2.31-3-3.38-6.22-2.12-8.4l3.78 2.18 3.56 2z" fill="#7f8e94"/><circle id="Oval" cx="27" cy="29" fill="#607d8b" r="2"/><path id="Shape" d="m11.43 25.31c-1.2904744 6.4743013-2.19871193 13.0189545-2.72 19.6-.19 2.19-.33 4.22-.43 6-.19 3.32-.28 5.82-.28 7.09 0 .5522847-.44771525 1-1 1h-2c-.55228475 0-1-.4477153-1-1 0-2.46.2-9 1-16.92.17-1.66.37-3.38.6-5.14.59392562-4.7492346 1.42833067-9.4652919 2.5-14.13.98274535 1.2814514 2.0990265 2.4547199 3.33 3.5z" fill="#60a917"/><path id="Shape" d="m18 6c-.46.81-.9 1.65-1.32 2.53-.7703428 1.6309507-1.4578839 3.2997399-2.06 5-.46 1.32-.9 2.69-1.31 4.09l-3.56-2c.7-2.29 1.49-4.5 2.36-6.58.28-.67.58-1.32.88-2 .51-1.04 1.01-2.04 1.59-3.04.3551046-.61508907 1.0097779-.99571308 1.72-1 .7087971.01130812 1.3586501.39697267 1.7081405 1.01372038s.3463934 1.37241726-.0081405 1.98627962z" fill="#60a917"/><g fill="#a4c400"><path id="Shape" d="m5.61 35.93c-.23 1.76-.43 3.48-.6 5.14-1.7-1.52-5.01-2.07-5.01-2.07.97761654-2.1585078 3.26497779-3.4102367 5.61-3.07z"/><path id="Shape" d="m14 48s-4.54.76-5.72 2.93c.1-1.8.24-3.83.43-6 2.2368569-.2061509 4.3592516 1.0255602 5.29 3.07z"/><path id="Shape" d="m13 7c-.3.64-.6 1.29-.88 2-4.41804697.18042081-8.45197093-2.4981047-10-6.64-.11587784-.29898834-.08134755-.6354111.09285044-.90462618.174198-.26921508.4669322-.43856472.78714956-.45537382 8.79-.39 10 6 10 6z"/><path id="Shape" d="m20.35 13s-3.67-.55-5.71.57c.6021161-1.7002601 1.2896572-3.3690493 2.06-5 1.989177.61971241 3.4222342 2.3590119 3.65 4.43z"/></g></g><g id="Icons_copy" fill="#000"><path id="Shape" d="m29 33c1.6568542 0 3-1.3431458 3-3s-1.3431458-3-3-3-3 1.3431458-3 3 1.3431458 3 3 3zm0-4c.5522847 0 1 .4477153 1 1s-.4477153 1-1 1-1-.4477153-1-1 .4477153-1 1-1z"/><path id="Shape" d="m1.84 41c1.47250351.2364023 2.88522437.7559847 4.16 1.53-.79 7.62-.95 13.85-1 16.47-.00840497.5336254.19681546 1.0484767.57 1.43.38152332.3731845.89637457.578405 1.43.57h2c1.1045695 0 2-.8954305 2-2 0-1.32.09-3.69.25-6.76.8-1.2 3.39-2 4.91-2.29.3120152-.0557257.5791391-.2560686.72-.54.1426286-.2830476.1426286-.6169524 0-.9-.9188936-2.041294-2.8698338-3.426079-5.1-3.62.4853357-5.6382409 1.2529654-11.2486126 2.3-16.81.7643705.5690438 1.5588562 1.0964755 2.38 1.58 1.861449 1.0580218 3.8375697 1.9001377 5.89 2.51.4783311 1.4403397 1.4074579 2.6885252 2.65 3.56v5.05c-.6321439.5653847-.9954467 1.3719168-1 2.22v15c0 1.6568542 1.3431458 3 3 3h4c1.6568542 0 3-1.3431458 3-3v-15c-.0045533-.8480832-.3678561-1.6546153-1-2.22v-3.86l3.33 1.93c.1690498.8403466.6894959 1.5682433 1.43 2l13 7.5c.4533047.2609431.9669559.3988361 1.49.4 1.0760543.004272 2.0719771-.5680974 2.61-1.5l2-3.46c.3982756-.6894592.5061302-1.5089663.299805-2.2779965-.2063251-.7690301-.7099037-1.4244942-1.399805-1.8220035l-13-7.5c-.7393274-.4209394-1.6226117-.5081774-2.43-.24l-4.33-2.54c-.1287215-1.5021542-.7389899-2.9226068-1.74-4.05.4870673-2.0850755.7353304-4.2187965.74-6.36 0-7.55-3.85-16-9-16-.5522847 0-1 .44771525-1 1v19.07l-8.48-4.9c.29-1 .59-1.94.92-2.89 1.5465571-.443488 3.1721137-.539109 4.76-.28.3149066.0490412.63433-.0549571.86-.28.2250429-.22567.3290412-.5450934.28-.86-.20217-2.0644484-1.4265656-3.88977428-3.26-4.86.27-.52.52-1 .81-1.55.6955671-1.41576901.1759273-3.12837107-1.1890826-3.91891734-1.3650099-.79054628-3.1090766-.38897115-3.9909174.91891734-.22.38-.43.77-.63 1.16-1.24-2.05-4.08-4.88-10.16-4.61-.64581203.02435019-1.24005565.35926345-1.59532972.89912125s-.42778671 1.21811608-.19467028 1.82087875c1.52100149 4.04124548 5.22791477 6.849631 9.53 7.22-.52 1.33-1 2.72-1.48 4.15l-2.7-1.56c-.22999329-.1329611-.50344065-.168941-.76-.1-.25792117.0689564-.47755942.2381858-.61.47-1.42 2.47-.39 5.9 1.89 9.1-1 4.31-1.74 8.7-2.3 12.89-2.41744634.034187-4.59835179 1.4595645-5.6 3.66-.14262859.2830476-.14262859.6169524 0 .9.14239077.2928943.41848969.4981029.74.55zm12.54 7.35c-1.0466404.2717749-2.054657.6749815-3 1.2.06-.83.12-1.71.19-2.62 1.0859243.0811652 2.0958491.5879246 2.81 1.41zm12.12-22.67.1-.07c2.3997415-1.2763936 5.3795831-.4019436 6.7090516 1.9688059 1.3294685 2.3707496.5215323 5.3693088-1.8190516 6.7511941-1.5470054.893164-3.4529946.893164-5 0-1.1842434-.6831866-2.0370789-1.8215052-2.36-3.15-.0888515-.3869772-.1324769-.7829612-.13-1.18.0036128-1.7827089.9561236-3.4286474 2.5-4.32zm10.16 11-2.86-1.6c.9859986-.9366331 1.6804944-2.1381109 2-3.46l2.86 1.65zm-4.66 21.32c0 .5522847-.4477153 1-1 1h-4c-.5522847 0-1-.4477153-1-1v-15c0-.5522847.4477153-1 1-1h4c.5522847 0 1 .4477153 1 1zm-5-18v-3.3c1.303364.3997955 2.696636.3997955 4 0v3.3zm14.76-6.1 13 7.5c.2297442.133628.3968418.3532172.4643886.6102702.0675467.257053.0299853.5304211-.1043886.7597298l-2 3.46c-.2746085.4761364-.8820208.6413883-1.36.37l-13-7.5c-.2314397-.1319512-.4006596-.350799-.4701217-.6079963-.069462-.2571974-.0334233-.53148.1001217-.7620037l2-3.46c.0873533-.1453777.2071402-.268587.35-.36.1494557-.0847023.3182117-.1294743.49-.13.1843565-.0096887.3677968.0318449.53.12zm-8.76-14.9c-.0075811 1.6782734-.1716244 3.3521845-.49 5-1.0594347-.6414209-2.2715948-.9867656-3.51-1-.6775984.0036406-1.3511544.104674-2 .3v-18.12c3.16 1.14 6 7.42 6 13.82zm-12-6.15c-.908734-.0471054-1.8199006-.003557-2.72.13.3-.76.6-1.47.91-2.15.8201721.4419913 1.4603293 1.1564208 1.81 2.02zm-16-9.85c6.9-.32 8.61 3.84 8.94 4.93-.16.34-.31.7-.47 1.05-3.7810526-.07221462-7.13643853-2.4411884-8.47-5.98zm10 7.39c.28-.65.57-1.29.87-1.91v-.09c.47-1 1-2 1.51-2.9.1922271-.32623558.5522312-.51591515.93-.49.3477363-.00969579.6718103.17548934.84.48.1786328.30940108.1786328.69059892 0 1-.48.84-.94 1.71-1.35 2.59-.7718785 1.6302718-1.4594522 3.29914-2.06 5-.0056573.0431487-.0056573.0868513 0 .13-.34 1-.66 1.95-1 2.93l-1.77-1c.62-2.02 1.32-3.94 2.03-5.74zm-6.5 5.47 15.71 9.06c-1.403897 1.317378-2.2032512 3.1548075-2.21 5.08-1.5705661-.5200535-3.0875352-1.189797-4.53-2-2.5681273-1.4852341-4.8205179-3.4590486-6.63-5.81v-.06c-1.74-2.3-2.64-4.59-2.34-6.27zm3.84 10.8c-1.5964757 8.3128994-2.61557833 16.7263435-3.05 25.18-.19 3.27-.29 5.79-.29 7.16h-2c.1732024-11.4201607 1.38824106-22.8006881 3.63-34 .54.56 1.11 1.12 1.71 1.66zm-5.87 11.24c-.1.83-.19 1.65-.28 2.45-.82333409-.4211445-1.68790808-.7562507-2.58-1 .71474647-.8543363 1.74841278-1.3783979 2.86-1.45z"/></g></g></g></svg>