<svg id="Layer_1" enable-background="new 0 0 512 512" height="512" viewBox="0 0 512 512" width="512" xmlns="http://www.w3.org/2000/svg"><g><g><path d="m195.805 184.393h10c4.142 0 7.5-3.358 7.5-7.5s-3.358-7.5-7.5-7.5h-10c-4.142 0-7.5 3.358-7.5 7.5s3.358 7.5 7.5 7.5z"/><path d="m202.44 229.643c1.389 2.406 3.91 3.751 6.502 3.751 1.272 0 2.562-.324 3.743-1.006l8.66-5c3.587-2.071 4.816-6.658 2.745-10.245s-6.658-4.816-10.245-2.745l-8.66 5c-3.588 2.07-4.817 6.657-2.745 10.245z"/><path d="m241.055 268.258c1.181.682 2.471 1.006 3.743 1.006 2.592 0 5.113-1.345 6.502-3.751l5-8.66c2.071-3.587.842-8.174-2.745-10.245-3.587-2.072-8.174-.843-10.245 2.745l-5 8.66c-2.071 3.587-.842 8.174 2.745 10.245z"/><path d="m489.499 467h-169.116c-4.143 0-7.5 3.358-7.5 7.5s3.357 7.5 7.5 7.5h169.115c4.136 0 7.5 3.364 7.5 7.5s-3.364 7.5-7.5 7.5h-466.998c-4.135 0-7.5-3.364-7.5-7.5s3.365-7.5 7.5-7.5h265.473c4.143 0 7.5-3.358 7.5-7.5s-3.357-7.5-7.5-7.5h-141.039l-.067-56.089 23.223-21.188c5.673 3.778 12.505 5.74 19.992 5.74 2.2 0 4.457-.169 6.757-.512 11.727-1.746 23.32-7.875 32.645-17.256 19.831-19.951 23.257-48.813 7.638-64.338s-44.459-11.923-64.29 8.027c-9.325 9.382-15.383 21.012-17.059 32.749-1.312 9.191.131 17.667 4.087 24.618l-13.018 11.877-.092-76.873c4.525-1.375 8.779-3.967 12.562-7.692 8.678-8.546 13.716-21.809 13.821-36.388.183-25.509-14.604-45.614-33.664-45.77-7.478-.103-14.577 2.995-20.512 8.84-8.678 8.546-13.716 21.809-13.821 36.388-.16 22.262 11.082 40.407 26.615 44.77l.092 77.051-12.328-11.106c10.06-16.251 5.247-41.004-12.49-58.635-9.381-9.325-21.012-15.383-32.749-17.059-12.55-1.793-23.77 1.553-31.589 9.421-10.533 10.597-12.689 27.572-5.626 44.299 1.611 3.816 6.01 5.604 9.826 3.992 3.816-1.611 5.604-6.01 3.992-9.826-4.648-11.009-3.71-21.696 2.447-27.891 4.397-4.424 11.085-6.251 18.831-5.146 8.56 1.222 17.188 5.785 24.294 12.848 11.59 11.52 16.033 27.22 11.584 37.653l-21.946-19.771c-3.078-2.771-7.818-2.525-10.592.552-2.772 3.078-2.525 7.82.552 10.592l20.587 18.546c-8.076 2.342-18.69.187-28.198-6.284-3.423-2.33-8.089-1.444-10.42 1.98s-1.444 8.089 1.98 10.42c9.651 6.569 20.129 9.853 29.833 9.852 6.913 0 13.433-1.668 18.979-5.001l23.058 20.772.066 55.838h-109.434c-12.407 0-22.5 10.093-22.5 22.5s10.093 22.5 22.5 22.5h466.999c12.406 0 22.5-10.093 22.5-22.5s-10.094-22.5-22.5-22.5zm-318.875-110.748c1.222-8.561 5.785-17.188 12.848-24.294 13.763-13.845 33.489-17.492 43.077-7.962 9.587 9.53 6.06 29.279-7.703 43.125-7.063 7.105-15.663 11.72-24.215 12.994-4.746.707-9.101.308-12.781-1.121l20.273-18.497c3.06-2.792 3.277-7.536.485-10.596s-7.536-3.277-10.596-.485l-20.518 18.72c-1.184-3.477-1.495-7.512-.87-11.884zm-50.488-87.013c.075-10.471 3.569-20.119 9.346-25.807 2.103-2.071 5.499-4.529 9.773-4.529h.091c10.303.085 18.906 14.127 18.787 30.664-.075 10.471-3.569 20.119-9.346 25.807-2.103 2.071-5.499 4.529-9.773 4.529h-.091c-10.302-.085-18.906-14.127-18.787-30.664z"/><path d="m260.243 212.497c2.157 1.519 4.697 2.301 7.262 2.301 1.487 0 2.983-.264 4.417-.799l19.258-7.197 96.595 16.344c5.574 6.037 13.26 9.762 21.538 10.346.764.054 1.525.081 2.286.081 8.567 0 16.817-3.394 22.923-9.499l67.979-67.98c6.647-6.646 10.08-15.835 9.419-25.209-.661-9.375-5.35-17.991-12.862-23.638l-18.85-14.179c14.956-23.689 11.748-55.08-8.457-75.285-11.467-11.468-26.713-17.783-42.93-17.783-13.773 0-26.845 4.555-37.497 12.952-.65-.876-1.372-1.715-2.165-2.508-4.25-4.25-9.899-6.59-15.909-6.59-6.011 0-11.66 2.341-15.91 6.59l-7.203 7.203c-2.929 2.929-2.929 7.678 0 10.606 2.93 2.929 7.678 2.929 10.607 0l7.203-7.203c1.416-1.417 3.299-2.197 5.303-2.197 2.003 0 3.887.78 5.303 2.197 2.192 2.192 2.741 5.414 1.647 8.122-.055.118-.107.238-.156.358-.359.77-.856 1.492-1.491 2.127l-67.881 67.882c-2.925 2.924-7.683 2.925-10.607 0-2.925-2.924-2.925-7.683 0-10.607l38.061-38.061c2.929-2.929 2.929-7.678 0-10.606-2.93-2.929-7.678-2.929-10.607 0l-38.061 38.061c-8.771 8.773-8.771 23.047.001 31.82 4.386 4.386 10.147 6.579 15.909 6.579.693 0 1.385-.032 2.076-.095l42.23 56.139-57.812-.8-18.952-7.411c-3.836-1.678-8.215-1.352-11.77.884-3.634 2.287-5.837 6.215-5.895 10.507l-.354 26.061c-.057 4.167 1.944 8.088 5.352 10.487zm168.578-197.497c12.21 0 23.689 4.755 32.322 13.389 14.916 14.916 17.534 37.923 7.023 55.621l-72.629-54.632c.315-.334.635-.664.96-.989 8.634-8.634 20.113-13.389 32.324-13.389zm-40.282 27.884 101.503 76.351c4.039 3.036 6.56 7.667 6.914 12.704.355 5.037-1.489 9.975-5.063 13.547l-67.98 67.98c-3.572 3.572-8.514 5.411-13.546 5.062-4.972-.35-9.548-2.81-12.587-6.76-.051-.069-.103-.138-.156-.206l-76.314-101.448zm-14.114 162.79-76.497-12.943-.014-5.676 63.162.874zm-104.229-26.07 12.713 4.971.004 1.763.015 7.535-12.991 4.855z"/></g></g></svg>